<?xml version="1.0" encoding="utf-8"?>
<svg x="0px" y="0px" width="1024px" height="1024px" viewBox="0 0 1024 1024" xmlns="http://www.w3.org/2000/svg" xmlns:xlink="http://www.w3.org/1999/xlink">
  <!--Generated by AMDN-->
  <g id="Layer_2">
    <path id="Path" style="fill:#8239d8;fill-opacity:1;fill-rule:evenodd;opacity:1;stroke:none;" d="M42.2553,494 C42.2553,494,78.2553,494,78.2553,494 C78.2553,494,78.2553,530,78.2553,530 C78.2553,530,42.2553,530,42.2553,530 C42.2553,530,42.2553,494,42.2553,494 z"/>
    <path id="Path-1" style="fill:#8238d8;fill-opacity:1;fill-rule:evenodd;opacity:1;stroke:none;" d="M83.5341,494 C83.5341,494,119.534,494,119.534,494 C119.534,494,119.534,530,119.534,530 C119.534,530,83.5341,530,83.5341,530 C83.5341,530,83.5341,494,83.5341,494 z"/>
    <path id="Path-2" style="fill:#8238d8;fill-opacity:1;fill-rule:evenodd;opacity:1;stroke:none;" d="M124.422,494 C124.422,494,160.422,494,160.422,494 C160.422,494,160.422,530,160.422,530 C160.422,530,124.422,530,124.422,530 C124.422,530,124.422,494,124.422,494 z"/>
    <path id="Path-3" style="fill:#8238d8;fill-opacity:1;fill-rule:evenodd;opacity:1;stroke:none;" d="M124.422,535.474 C124.422,535.474,160.422,535.474,160.422,535.474 C160.422,535.474,160.422,571.474,160.422,571.474 C160.422,571.474,124.422,571.474,124.422,571.474 C124.422,571.474,124.422,535.474,124.422,535.474 z"/>
    <path id="Path-4" style="fill:#8238d8;fill-opacity:1;fill-rule:evenodd;opacity:1;stroke:none;" d="M83.5341,453.112 C83.5341,453.112,119.534,453.112,119.534,453.112 C119.534,453.112,119.534,489.112,119.534,489.112 C119.534,489.112,83.5341,489.112,83.5341,489.112 C83.5341,489.112,83.5341,453.112,83.5341,453.112 z"/>
    <path id="Path-5" style="fill:#8238d8;fill-opacity:1;fill-rule:evenodd;opacity:1;stroke:none;" d="M124.422,453.112 C124.422,453.112,160.422,453.112,160.422,453.112 C160.422,453.112,160.422,489.112,160.422,489.112 C160.422,489.112,124.422,489.112,124.422,489.112 C124.422,489.112,124.422,453.112,124.422,453.112 z"/>
    <path id="Path-6" style="fill:#8238d8;fill-opacity:1;fill-rule:evenodd;opacity:1;stroke:none;" d="M124.422,411.638 C124.422,411.638,160.422,411.638,160.422,411.638 C160.422,411.638,160.422,447.638,160.422,447.638 C160.422,447.638,124.422,447.638,124.422,447.638 C124.422,447.638,124.422,411.638,124.422,411.638 z"/>
    <path id="Path-7" style="fill:#8238d8;fill-opacity:1;fill-rule:evenodd;opacity:1;stroke:none;" d="M124.422,370.163 C124.422,370.163,160.422,370.163,160.422,370.163 C160.422,370.163,160.422,406.164,160.422,406.164 C160.422,406.164,124.422,406.164,124.422,406.164 C124.422,406.164,124.422,370.163,124.422,370.163 z"/>
  </g>
  <g id="Layer_3">
    <path id="Path" style="fill:#6a50e9;fill-opacity:1;fill-rule:evenodd;opacity:1;stroke:none;" d="M165.475,411.638 C165.475,411.638,201.475,411.638,201.475,411.638 C201.475,411.638,201.475,447.638,201.475,447.638 C201.475,447.638,165.475,447.638,165.475,447.638 C165.475,447.638,165.475,411.638,165.475,411.638 z"/>
    <path id="Path-1" style="fill:#6950e9;fill-opacity:1;fill-rule:evenodd;opacity:1;stroke:none;" d="M165.475,453.112 C165.475,453.112,201.475,453.112,201.475,453.112 C201.475,453.112,201.475,489.112,201.475,489.112 C201.475,489.112,165.475,489.112,165.475,489.112 C165.475,489.112,165.475,453.112,165.475,453.112 z"/>
    <path id="Path-2" style="fill:#6950e9;fill-opacity:1;fill-rule:evenodd;opacity:1;stroke:none;" d="M165.475,494 C165.475,494,201.475,494,201.475,494 C201.475,494,201.475,530,201.475,530 C201.475,530,165.475,530,165.475,530 C165.475,530,165.475,494,165.475,494 z"/>
    <path id="Path-3" style="fill:#6950e9;fill-opacity:1;fill-rule:evenodd;opacity:1;stroke:none;" d="M165.475,535.474 C165.475,535.474,201.475,535.474,201.475,535.474 C201.475,535.474,201.475,571.474,201.475,571.474 C201.475,571.474,165.475,571.474,165.475,571.474 C165.475,571.474,165.475,535.474,165.475,535.474 z"/>
    <path id="Path-4" style="fill:#6950e9;fill-opacity:1;fill-rule:evenodd;opacity:1;stroke:none;" d="M165.475,577.638 C165.475,577.638,201.475,577.638,201.475,577.638 C201.475,577.638,201.475,613.638,201.475,613.638 C201.475,613.638,165.475,613.638,165.475,613.638 C165.475,613.638,165.475,577.638,165.475,577.638 z"/>
  </g>
  <g id="Layer_4">
    <path id="Path" style="fill:#466cf3;fill-opacity:1;fill-rule:evenodd;opacity:1;stroke:none;" d="M206.462,453.112 C206.462,453.112,242.462,453.112,242.462,453.112 C242.462,453.112,242.462,489.112,242.462,489.112 C242.462,489.112,206.462,489.112,206.462,489.112 C206.462,489.112,206.462,453.112,206.462,453.112 z"/>
    <path id="Path-1" style="fill:#466bf2;fill-opacity:1;fill-rule:evenodd;opacity:1;stroke:none;" d="M206.462,494 C206.462,494,242.462,494,242.462,494 C242.462,494,242.462,530,242.462,530 C242.462,530,206.462,530,206.462,530 C206.462,530,206.462,494,206.462,494 z"/>
    <path id="Path-2" style="fill:#466bf2;fill-opacity:1;fill-rule:evenodd;opacity:1;stroke:none;" d="M206.462,535.474 C206.462,535.474,242.462,535.474,242.462,535.474 C242.462,535.474,242.462,571.474,242.462,571.474 C242.462,571.474,206.462,571.474,206.462,571.474 C206.462,571.474,206.462,535.474,206.462,535.474 z"/>
    <path id="Path-3" style="fill:#466bf2;fill-opacity:1;fill-rule:evenodd;opacity:1;stroke:none;" d="M206.462,577.638 C206.462,577.638,242.462,577.638,242.462,577.638 C242.462,577.638,242.462,613.638,242.462,613.638 C242.462,613.638,206.462,613.638,206.462,613.638 C206.462,613.638,206.462,577.638,206.462,577.638 z"/>
    <path id="Path-4" style="fill:#466bf2;fill-opacity:1;fill-rule:evenodd;opacity:1;stroke:none;" d="M206.462,618.758 C206.462,618.758,242.462,618.758,242.462,618.758 C242.462,618.758,242.462,654.758,242.462,654.758 C242.462,654.758,206.462,654.758,206.462,654.758 C206.462,654.758,206.462,618.758,206.462,618.758 z"/>
    <path id="Path-5" style="fill:#466bf2;fill-opacity:1;fill-rule:evenodd;opacity:1;stroke:none;" d="M206.462,659.611 C206.462,659.611,242.462,659.611,242.462,659.611 C242.462,659.611,242.462,695.611,242.462,695.611 C242.462,695.611,206.462,695.611,206.462,695.611 C206.462,695.611,206.462,659.611,206.462,659.611 z"/>
  </g>
  <g id="Layer_5">
    <path id="Path" style="fill:#3d93ee;fill-opacity:1;fill-rule:evenodd;opacity:1;stroke:none;" d="M247.953,370.163 C247.953,370.163,283.953,370.163,283.953,370.163 C283.953,370.163,283.953,406.164,283.953,406.164 C283.953,406.164,247.953,406.164,247.953,406.164 C247.953,406.164,247.953,370.163,247.953,370.163 z"/>
    <path id="Path-1" style="fill:#3d93ed;fill-opacity:1;fill-rule:evenodd;opacity:1;stroke:none;" d="M247.953,411.638 C247.953,411.638,283.953,411.638,283.953,411.638 C283.953,411.638,283.953,447.638,283.953,447.638 C283.953,447.638,247.953,447.638,247.953,447.638 C247.953,447.638,247.953,411.638,247.953,411.638 z"/>
    <path id="Path-2" style="fill:#3d93ed;fill-opacity:1;fill-rule:evenodd;opacity:1;stroke:none;" d="M247.953,370.163 C247.953,370.163,283.953,370.163,283.953,370.163 C283.953,370.163,283.953,406.164,283.953,406.164 C283.953,406.164,247.953,406.164,247.953,406.164 C247.953,406.164,247.953,370.163,247.953,370.163 z"/>
    <path id="Path-3" style="fill:#3d93ed;fill-opacity:1;fill-rule:evenodd;opacity:1;stroke:none;" d="M247.953,453.112 C247.953,453.112,283.953,453.112,283.953,453.112 C283.953,453.112,283.953,489.112,283.953,489.112 C283.953,489.112,247.953,489.112,247.953,489.112 C247.953,489.112,247.953,453.112,247.953,453.112 z"/>
    <path id="Path-4" style="fill:#3d93ed;fill-opacity:1;fill-rule:evenodd;opacity:1;stroke:none;" d="M247.953,535.474 C247.953,535.474,283.953,535.474,283.953,535.474 C283.953,535.474,283.953,571.474,283.953,571.474 C283.953,571.474,247.953,571.474,247.953,571.474 C247.953,571.474,247.953,535.474,247.953,535.474 z"/>
    <path id="Path-5" style="fill:#3d93ed;fill-opacity:1;fill-rule:evenodd;opacity:1;stroke:none;" d="M247.953,535.474 C247.953,535.474,283.953,535.474,283.953,535.474 C283.953,535.474,283.953,571.474,283.953,571.474 C283.953,571.474,247.953,571.474,247.953,571.474 C247.953,571.474,247.953,535.474,247.953,535.474 z"/>
    <path id="Path-6" style="fill:#3d93ed;fill-opacity:1;fill-rule:evenodd;opacity:1;stroke:none;" d="M247.953,577.638 C247.953,577.638,283.953,577.638,283.953,577.638 C283.953,577.638,283.953,613.638,283.953,613.638 C283.953,613.638,247.953,613.638,247.953,613.638 C247.953,613.638,247.953,577.638,247.953,577.638 z"/>
    <path id="Path-7" style="fill:#3d93ed;fill-opacity:1;fill-rule:evenodd;opacity:1;stroke:none;" d="M247.953,494 C247.953,494,283.953,494,283.953,494 C283.953,494,283.953,530,283.953,530 C283.953,530,247.953,530,247.953,530 C247.953,530,247.953,494,247.953,494 z"/>
    <path id="Path-8" style="fill:#3d93ed;fill-opacity:1;fill-rule:evenodd;opacity:1;stroke:none;" d="M247.953,618.758 C247.953,618.758,283.953,618.758,283.953,618.758 C283.953,618.758,283.953,654.758,283.953,654.758 C283.953,654.758,247.953,654.758,247.953,654.758 C247.953,654.758,247.953,618.758,247.953,618.758 z"/>
    <path id="Path-9" style="fill:#3d93ed;fill-opacity:1;fill-rule:evenodd;opacity:1;stroke:none;" d="M247.953,659.611 C247.953,659.611,283.953,659.611,283.953,659.611 C283.953,659.611,283.953,695.611,283.953,695.611 C283.953,695.611,247.953,695.611,247.953,695.611 C247.953,695.611,247.953,659.611,247.953,659.611 z"/>
    <path id="Path-10" style="fill:#3d93ed;fill-opacity:1;fill-rule:evenodd;opacity:1;stroke:none;" d="M247.953,700.818 C247.953,700.818,283.953,700.818,283.953,700.818 C283.953,700.818,283.953,736.818,283.953,736.818 C283.953,736.818,247.953,736.818,247.953,736.818 C247.953,736.818,247.953,700.818,247.953,700.818 z"/>
  </g>
  <g id="Layer_6">
    <path id="Path" style="fill:#29bae1;fill-opacity:1;fill-rule:evenodd;opacity:1;stroke:none;" d="M289.445,370.163 C289.445,370.163,325.445,370.163,325.445,370.163 C325.445,370.163,325.445,406.164,325.445,406.164 C325.445,406.164,289.445,406.164,289.445,406.164 C289.445,406.164,289.445,370.163,289.445,370.163 z"/>
    <path id="Path-1" style="fill:#28bae1;fill-opacity:1;fill-rule:evenodd;opacity:1;stroke:none;" d="M289.445,411.638 C289.445,411.638,325.445,411.638,325.445,411.638 C325.445,411.638,325.445,447.638,325.445,447.638 C325.445,447.638,289.445,447.638,289.445,447.638 C289.445,447.638,289.445,411.638,289.445,411.638 z"/>
    <path id="Path-2" style="fill:#28bae1;fill-opacity:1;fill-rule:evenodd;opacity:1;stroke:none;" d="M289.445,453.112 C289.445,453.112,325.445,453.112,325.445,453.112 C325.445,453.112,325.445,489.112,325.445,489.112 C325.445,489.112,289.445,489.112,289.445,489.112 C289.445,489.112,289.445,453.112,289.445,453.112 z"/>
    <path id="Path-3" style="fill:#28bae1;fill-opacity:1;fill-rule:evenodd;opacity:1;stroke:none;" d="M289.445,327.715 C289.445,327.715,325.445,327.715,325.445,327.715 C325.445,327.715,325.445,363.715,325.445,363.715 C325.445,363.715,289.445,363.715,289.445,363.715 C289.445,363.715,289.445,327.715,289.445,327.715 z"/>
    <path id="Path-4" style="fill:#28bae1;fill-opacity:1;fill-rule:evenodd;opacity:1;stroke:none;" d="M289.445,286.543 C289.445,286.543,325.445,286.543,325.445,286.543 C325.445,286.543,325.445,322.543,325.445,322.543 C325.445,322.543,289.445,322.543,289.445,322.543 C289.445,322.543,289.445,286.543,289.445,286.543 z"/>
    <path id="Path-5" style="fill:#28bae1;fill-opacity:1;fill-rule:evenodd;opacity:1;stroke:none;" d="M289.445,494 C289.445,494,325.445,494,325.445,494 C325.445,494,325.445,530,325.445,530 C325.445,530,289.445,530,289.445,530 C289.445,530,289.445,494,289.445,494 z"/>
    <path id="Path-6" style="fill:#28bae1;fill-opacity:1;fill-rule:evenodd;opacity:1;stroke:none;" d="M289.445,535.474 C289.445,535.474,325.445,535.474,325.445,535.474 C325.445,535.474,325.445,571.474,325.445,571.474 C325.445,571.474,289.445,571.474,289.445,571.474 C289.445,571.474,289.445,535.474,289.445,535.474 z"/>
    <path id="Path-7" style="fill:#28bae1;fill-opacity:1;fill-rule:evenodd;opacity:1;stroke:none;" d="M289.445,577.638 C289.445,577.638,325.445,577.638,325.445,577.638 C325.445,577.638,325.445,613.638,325.445,613.638 C325.445,613.638,289.445,613.638,289.445,613.638 C289.445,613.638,289.445,577.638,289.445,577.638 z"/>
  </g>
  <g id="Layer_7">
    <path id="Path" style="fill:#21d8d9;fill-opacity:1;fill-rule:evenodd;opacity:1;stroke:none;" d="M330.074,577.638 C330.074,577.638,366.074,577.638,366.074,577.638 C366.074,577.638,366.074,613.638,366.074,613.638 C366.074,613.638,330.074,613.638,330.074,613.638 C330.074,613.638,330.074,577.638,330.074,577.638 z"/>
    <path id="Path-1" style="fill:#21d8d8;fill-opacity:1;fill-rule:evenodd;opacity:1;stroke:none;" d="M330.074,618.758 C330.074,618.758,366.074,618.758,366.074,618.758 C366.074,618.758,366.074,654.758,366.074,654.758 C366.074,654.758,330.074,654.758,330.074,654.758 C330.074,654.758,330.074,618.758,330.074,618.758 z"/>
    <path id="Path-2" style="fill:#21d8d8;fill-opacity:1;fill-rule:evenodd;opacity:1;stroke:none;" d="M330.074,535.474 C330.074,535.474,366.074,535.474,366.074,535.474 C366.074,535.474,366.074,571.474,366.074,571.474 C366.074,571.474,330.074,571.474,330.074,571.474 C330.074,571.474,330.074,535.474,330.074,535.474 z"/>
    <path id="Path-3" style="fill:#21d8d8;fill-opacity:1;fill-rule:evenodd;opacity:1;stroke:none;" d="M330.074,494 C330.074,494,366.074,494,366.074,494 C366.074,494,366.074,530,366.074,530 C366.074,530,330.074,530,330.074,530 C330.074,530,330.074,494,330.074,494 z"/>
    <path id="Path-4" style="fill:#21d8d8;fill-opacity:1;fill-rule:evenodd;opacity:1;stroke:none;" d="M330.074,453.112 C330.074,453.112,366.074,453.112,366.074,453.112 C366.074,453.112,366.074,489.112,366.074,489.112 C366.074,489.112,330.074,489.112,330.074,489.112 C330.074,489.112,330.074,453.112,330.074,453.112 z"/>
    <path id="Path-5" style="fill:#21d8d8;fill-opacity:1;fill-rule:evenodd;opacity:1;stroke:none;" d="M330.074,411.638 C330.074,411.638,366.074,411.638,366.074,411.638 C366.074,411.638,366.074,447.638,366.074,447.638 C366.074,447.638,330.074,447.638,330.074,447.638 C330.074,447.638,330.074,411.638,330.074,411.638 z"/>
    <path id="Path-6" style="fill:#21d8d8;fill-opacity:1;fill-rule:evenodd;opacity:1;stroke:none;" d="M330.074,370.164 C330.074,370.164,366.074,370.164,366.074,370.164 C366.074,370.164,366.074,406.164,366.074,406.164 C366.074,406.164,330.074,406.164,330.074,406.164 C330.074,406.164,330.074,370.164,330.074,370.164 z"/>
    <path id="Path-7" style="fill:#21d8d8;fill-opacity:1;fill-rule:evenodd;opacity:1;stroke:none;" d="M330.074,327.715 C330.074,327.715,366.074,327.715,366.074,327.715 C366.074,327.715,366.074,363.715,366.074,363.715 C366.074,363.715,330.074,363.715,330.074,363.715 C330.074,363.715,330.074,327.715,330.074,327.715 z"/>
  </g>
  <g id="Layer_8">
    <path id="Path" style="fill:#25dece;fill-opacity:1;fill-rule:evenodd;opacity:1;stroke:none;" d="M371.234,577.638 C371.234,577.638,407.234,577.638,407.234,577.638 C407.234,577.638,407.234,613.638,407.234,613.638 C407.234,613.638,371.234,613.638,371.234,613.638 C371.234,613.638,371.234,577.638,371.234,577.638 z"/>
    <path id="Path-1" style="fill:#26ddcd;fill-opacity:1;fill-rule:evenodd;opacity:1;stroke:none;" d="M371.234,535.474 C371.234,535.474,407.234,535.474,407.234,535.474 C407.234,535.474,407.234,571.474,407.234,571.474 C407.234,571.474,371.234,571.474,371.234,571.474 C371.234,571.474,371.234,535.474,371.234,535.474 z"/>
    <path id="Path-2" style="fill:#26ddcd;fill-opacity:1;fill-rule:evenodd;opacity:1;stroke:none;" d="M371.234,494 C371.234,494,407.234,494,407.234,494 C407.234,494,407.234,530,407.234,530 C407.234,530,371.234,530,371.234,530 C371.234,530,371.234,494,371.234,494 z"/>
    <path id="Path-3" style="fill:#26ddcd;fill-opacity:1;fill-rule:evenodd;opacity:1;stroke:none;" d="M371.234,453.112 C371.234,453.112,407.234,453.112,407.234,453.112 C407.234,453.112,407.234,489.112,407.234,489.112 C407.234,489.112,371.234,489.112,371.234,489.112 C371.234,489.112,371.234,453.112,371.234,453.112 z"/>
    <path id="Path-4" style="fill:#26ddcd;fill-opacity:1;fill-rule:evenodd;opacity:1;stroke:none;" d="M371.234,411.638 C371.234,411.638,407.234,411.638,407.234,411.638 C407.234,411.638,407.234,447.638,407.234,447.638 C407.234,447.638,371.234,447.638,371.234,447.638 C371.234,447.638,371.234,411.638,371.234,411.638 z"/>
  </g>
  <g id="Layer_9">
    <path id="Path" style="fill:#33d8a0;fill-opacity:1;fill-rule:evenodd;opacity:1;stroke:none;" d="M412.47,535.474 C412.47,535.474,448.47,535.474,448.47,535.474 C448.47,535.474,448.47,571.474,448.47,571.474 C448.47,571.474,412.47,571.474,412.47,571.474 C412.47,571.474,412.47,535.474,412.47,535.474 z"/>
    <path id="Path-1" style="fill:#34d8a0;fill-opacity:1;fill-rule:evenodd;opacity:1;stroke:none;" d="M412.47,494 C412.47,494,448.47,494,448.47,494 C448.47,494,448.47,530,448.47,530 C448.47,530,412.47,530,412.47,530 C412.47,530,412.47,494,412.47,494 z"/>
    <path id="Path-2" style="fill:#34d8a0;fill-opacity:1;fill-rule:evenodd;opacity:1;stroke:none;" d="M412.47,453.112 C412.47,453.112,448.47,453.112,448.47,453.112 C448.47,453.112,448.47,489.112,448.47,489.112 C448.47,489.112,412.47,489.112,412.47,489.112 C412.47,489.112,412.47,453.112,412.47,453.112 z"/>
    <path id="Path-3" style="fill:#34d8a0;fill-opacity:1;fill-rule:evenodd;opacity:1;stroke:none;" d="M412.47,411.638 C412.47,411.638,448.47,411.638,448.47,411.638 C448.47,411.638,448.47,447.638,448.47,447.638 C448.47,447.638,412.47,447.638,412.47,447.638 C412.47,447.638,412.47,411.638,412.47,411.638 z"/>
    <path id="Path-4" style="fill:#34d8a0;fill-opacity:1;fill-rule:evenodd;opacity:1;stroke:none;" d="M412.47,370.164 C412.47,370.164,448.47,370.164,448.47,370.164 C448.47,370.164,448.47,406.164,448.47,406.164 C448.47,406.164,412.47,406.164,412.47,406.164 C412.47,406.164,412.47,370.164,412.47,370.164 z"/>
    <path id="Path-5" style="fill:#34d8a0;fill-opacity:1;fill-rule:evenodd;opacity:1;stroke:none;" d="M412.47,327.715 C412.47,327.715,448.47,327.715,448.47,327.715 C448.47,327.715,448.47,363.715,448.47,363.715 C448.47,363.715,412.47,363.715,412.47,363.715 C412.47,363.715,412.47,327.715,412.47,327.715 z"/>
  </g>
  <g id="Layer_10">
    <path id="Path" style="fill:#3cd86a;fill-opacity:1;fill-rule:evenodd;opacity:1;stroke:none;" d="M453.777,535.474 C453.777,535.474,489.777,535.474,489.777,535.474 C489.777,535.474,489.777,571.474,489.777,571.474 C489.777,571.474,453.777,571.474,453.777,571.474 C453.777,571.474,453.777,535.474,453.777,535.474 z"/>
    <path id="Path-1" style="fill:#3bd869;fill-opacity:1;fill-rule:evenodd;opacity:1;stroke:none;" d="M453.777,494 C453.777,494,489.777,494,489.777,494 C489.777,494,489.777,530,489.777,530 C489.777,530,453.777,530,453.777,530 C453.777,530,453.777,494,453.777,494 z"/>
    <path id="Path-2" style="fill:#3bd869;fill-opacity:1;fill-rule:evenodd;opacity:1;stroke:none;" d="M453.777,453.112 C453.777,453.112,489.777,453.112,489.777,453.112 C489.777,453.112,489.777,489.112,489.777,489.112 C489.777,489.112,453.777,489.112,453.777,489.112 C453.777,489.112,453.777,453.112,453.777,453.112 z"/>
    <path id="Path-3" style="fill:#3bd869;fill-opacity:1;fill-rule:evenodd;opacity:1;stroke:none;" d="M453.777,411.638 C453.777,411.638,489.777,411.638,489.777,411.638 C489.777,411.638,489.777,447.638,489.777,447.638 C489.777,447.638,453.777,447.638,453.777,447.638 C453.777,447.638,453.777,411.638,453.777,411.638 z"/>
    <path id="Path-4" style="fill:#3bd869;fill-opacity:1;fill-rule:evenodd;opacity:1;stroke:none;" d="M453.777,370.164 C453.777,370.164,489.777,370.164,489.777,370.164 C489.777,370.164,489.777,406.164,489.777,406.164 C489.777,406.164,453.777,406.164,453.777,406.164 C453.777,406.164,453.777,370.164,453.777,370.164 z"/>
    <path id="Path-5" style="fill:#3bd869;fill-opacity:1;fill-rule:evenodd;opacity:1;stroke:none;" d="M453.777,327.715 C453.777,327.715,489.777,327.715,489.777,327.715 C489.777,327.715,489.777,363.715,489.777,363.715 C489.777,363.715,453.777,363.715,453.777,363.715 C453.777,363.715,453.777,327.715,453.777,327.715 z"/>
    <path id="Path-6" style="fill:#3bd869;fill-opacity:1;fill-rule:evenodd;opacity:1;stroke:none;" d="M453.777,286.543 C453.777,286.543,489.777,286.543,489.777,286.543 C489.777,286.543,489.777,322.543,489.777,322.543 C489.777,322.543,453.777,322.543,453.777,322.543 C453.777,322.543,453.777,286.543,453.777,286.543 z"/>
    <path id="Path-7" style="fill:#3bd869;fill-opacity:1;fill-rule:evenodd;opacity:1;stroke:none;" d="M453.777,245.718 C453.777,245.718,489.777,245.718,489.777,245.718 C489.777,245.718,489.777,281.718,489.777,281.718 C489.777,281.718,453.777,281.718,453.777,281.718 C453.777,281.718,453.777,245.718,453.777,245.718 z"/>
  </g>
  <g id="Layer_11">
    <path id="Path" style="fill:#6fd846;fill-opacity:1;fill-rule:evenodd;opacity:1;stroke:none;" d="M495.099,327.715 C495.099,327.715,531.099,327.715,531.099,327.715 C531.099,327.715,531.099,363.715,531.099,363.715 C531.099,363.715,495.099,363.715,495.099,363.715 C495.099,363.715,495.099,327.715,495.099,327.715 z"/>
    <path id="Path-1" style="fill:#70d846;fill-opacity:1;fill-rule:evenodd;opacity:1;stroke:none;" d="M495.099,370.164 C495.099,370.164,531.099,370.164,531.099,370.164 C531.099,370.164,531.099,406.164,531.099,406.164 C531.099,406.164,495.099,406.164,495.099,406.164 C495.099,406.164,495.099,370.164,495.099,370.164 z"/>
    <path id="Path-2" style="fill:#70d846;fill-opacity:1;fill-rule:evenodd;opacity:1;stroke:none;" d="M495.099,411.638 C495.099,411.638,531.099,411.638,531.099,411.638 C531.099,411.638,531.099,447.638,531.099,447.638 C531.099,447.638,495.099,447.638,495.099,447.638 C495.099,447.638,495.099,411.638,495.099,411.638 z"/>
    <path id="Path-3" style="fill:#70d846;fill-opacity:1;fill-rule:evenodd;opacity:1;stroke:none;" d="M495.099,453.112 C495.099,453.112,531.099,453.112,531.099,453.112 C531.099,453.112,531.099,489.112,531.099,489.112 C531.099,489.112,495.099,489.112,495.099,489.112 C495.099,489.112,495.099,453.112,495.099,453.112 z"/>
    <path id="Path-4" style="fill:#70d846;fill-opacity:1;fill-rule:evenodd;opacity:1;stroke:none;" d="M495.099,494 C495.099,494,531.099,494,531.099,494 C531.099,494,531.099,530,531.099,530 C531.099,530,495.099,530,495.099,530 C495.099,530,495.099,494,495.099,494 z"/>
    <path id="Path-5" style="fill:#70d846;fill-opacity:1;fill-rule:evenodd;opacity:1;stroke:none;" d="M495.099,535.474 C495.099,535.474,531.099,535.474,531.099,535.474 C531.099,535.474,531.099,571.474,531.099,571.474 C531.099,571.474,495.099,571.474,495.099,571.474 C495.099,571.474,495.099,535.474,495.099,535.474 z"/>
    <path id="Path-6" style="fill:#70d846;fill-opacity:1;fill-rule:evenodd;opacity:1;stroke:none;" d="M495.099,577.638 C495.099,577.638,531.099,577.638,531.099,577.638 C531.099,577.638,531.099,613.638,531.099,613.638 C531.099,613.638,495.099,613.638,495.099,613.638 C495.099,613.638,495.099,577.638,495.099,577.638 z"/>
    <path id="Path-7" style="fill:#70d846;fill-opacity:1;fill-rule:evenodd;opacity:1;stroke:none;" d="M495.099,618.758 C495.099,618.758,531.099,618.758,531.099,618.758 C531.099,618.758,531.099,654.758,531.099,654.758 C531.099,654.758,495.099,654.758,495.099,654.758 C495.099,654.758,495.099,618.758,495.099,618.758 z"/>
    <path id="Path-8" style="fill:#70d846;fill-opacity:1;fill-rule:evenodd;opacity:1;stroke:none;" d="M495.099,659.611 C495.099,659.611,531.099,659.611,531.099,659.611 C531.099,659.611,531.099,695.611,531.099,695.611 C531.099,695.611,495.099,695.611,495.099,695.611 C495.099,695.611,495.099,659.611,495.099,659.611 z"/>
  </g>
  <g id="Layer_12">
    <path id="Path" style="fill:#aee337;fill-opacity:1;fill-rule:evenodd;opacity:1;stroke:none;" d="M535.823,453.112 C535.823,453.112,571.823,453.112,571.823,453.112 C571.823,453.112,571.823,489.112,571.823,489.112 C571.823,489.112,535.823,489.112,535.823,489.112 C535.823,489.112,535.823,453.112,535.823,453.112 z"/>
    <path id="Path-1" style="fill:#aee236;fill-opacity:1;fill-rule:evenodd;opacity:1;stroke:none;" d="M535.823,411.638 C535.823,411.638,571.823,411.638,571.823,411.638 C571.823,411.638,571.823,447.638,571.823,447.638 C571.823,447.638,535.823,447.638,535.823,447.638 C535.823,447.638,535.823,411.638,535.823,411.638 z"/>
    <path id="Path-2" style="fill:#aee236;fill-opacity:1;fill-rule:evenodd;opacity:1;stroke:none;" d="M535.823,494 C535.823,494,571.823,494,571.823,494 C571.823,494,571.823,530,571.823,530 C571.823,530,535.823,530,535.823,530 C535.823,530,535.823,494,535.823,494 z"/>
    <path id="Path-3" style="fill:#aee236;fill-opacity:1;fill-rule:evenodd;opacity:1;stroke:none;" d="M535.823,535.474 C535.823,535.474,571.823,535.474,571.823,535.474 C571.823,535.474,571.823,571.474,571.823,571.474 C571.823,571.474,535.823,571.474,535.823,571.474 C535.823,571.474,535.823,535.474,535.823,535.474 z"/>
    <path id="Path-4" style="fill:#aee236;fill-opacity:1;fill-rule:evenodd;opacity:1;stroke:none;" d="M535.823,577.638 C535.823,577.638,571.823,577.638,571.823,577.638 C571.823,577.638,571.823,613.638,571.823,613.638 C571.823,613.638,535.823,613.638,535.823,613.638 C535.823,613.638,535.823,577.638,535.823,577.638 z"/>
    <path id="Path-5" style="fill:#aee236;fill-opacity:1;fill-rule:evenodd;opacity:1;stroke:none;" d="M535.823,618.758 C535.823,618.758,571.823,618.758,571.823,618.758 C571.823,618.758,571.823,654.758,571.823,654.758 C571.823,654.758,535.823,654.758,535.823,654.758 C535.823,654.758,535.823,618.758,535.823,618.758 z"/>
    <path id="Path-6" style="fill:#aee236;fill-opacity:1;fill-rule:evenodd;opacity:1;stroke:none;" d="M535.823,659.611 C535.823,659.611,571.823,659.611,571.823,659.611 C571.823,659.611,571.823,695.611,571.823,695.611 C571.823,695.611,535.823,695.611,535.823,695.611 C535.823,695.611,535.823,659.611,535.823,659.611 z"/>
    <path id="Path-7" style="fill:#aee236;fill-opacity:1;fill-rule:evenodd;opacity:1;stroke:none;" d="M535.823,700.818 C535.823,700.818,571.823,700.818,571.823,700.818 C571.823,700.818,571.823,736.818,571.823,736.818 C571.823,736.818,535.823,736.818,535.823,736.818 C535.823,736.818,535.823,700.818,535.823,700.818 z"/>
  </g>
  <g id="Layer_13">
    <path id="Path" style="fill:#f8e433;fill-opacity:1;fill-rule:evenodd;opacity:1;stroke:none;" d="M577.05,494 C577.05,494,613.05,494,613.05,494 C613.05,494,613.05,530,613.05,530 C613.05,530,577.05,530,577.05,530 C577.05,530,577.05,494,577.05,494 z"/>
    <path id="Path-1" style="fill:#f8e434;fill-opacity:1;fill-rule:evenodd;opacity:1;stroke:none;" d="M577.05,535.474 C577.05,535.474,613.05,535.474,613.05,535.474 C613.05,535.474,613.05,571.474,613.05,571.474 C613.05,571.474,577.05,571.474,577.05,571.474 C577.05,571.474,577.05,535.474,577.05,535.474 z"/>
    <path id="Path-2" style="fill:#f8e434;fill-opacity:1;fill-rule:evenodd;opacity:1;stroke:none;" d="M577.05,577.638 C577.05,577.638,613.05,577.638,613.05,577.638 C613.05,577.638,613.05,613.638,613.05,613.638 C613.05,613.638,577.05,613.638,577.05,613.638 C577.05,613.638,577.05,577.638,577.05,577.638 z"/>
    <path id="Path-3" style="fill:#f8e434;fill-opacity:1;fill-rule:evenodd;opacity:1;stroke:none;" d="M577.05,618.758 C577.05,618.758,613.05,618.758,613.05,618.758 C613.05,618.758,613.05,654.758,613.05,654.758 C613.05,654.758,577.05,654.758,577.05,654.758 C577.05,654.758,577.05,618.758,577.05,618.758 z"/>
    <path id="Path-4" style="fill:#f8e434;fill-opacity:1;fill-rule:evenodd;opacity:1;stroke:none;" d="M577.05,659.611 C577.05,659.611,613.05,659.611,613.05,659.611 C613.05,659.611,613.05,695.611,613.05,695.611 C613.05,695.611,577.05,695.611,577.05,695.611 C577.05,695.611,577.05,659.611,577.05,659.611 z"/>
    <path id="Path-5" style="fill:#f8e434;fill-opacity:1;fill-rule:evenodd;opacity:1;stroke:none;" d="M577.05,700.818 C577.05,700.818,613.05,700.818,613.05,700.818 C613.05,700.818,613.05,736.818,613.05,736.818 C613.05,736.818,577.05,736.818,577.05,736.818 C577.05,736.818,577.05,700.818,577.05,700.818 z"/>
    <path id="Path-6" style="fill:#f8e434;fill-opacity:1;fill-rule:evenodd;opacity:1;stroke:none;" d="M577.05,742.803 C577.05,742.803,613.05,742.803,613.05,742.803 C613.05,742.803,613.05,778.803,613.05,778.803 C613.05,778.803,577.05,778.803,577.05,778.803 C577.05,778.803,577.05,742.803,577.05,742.803 z"/>
  </g>
  <g id="Layer_14">
    <path id="Path" style="fill:#f8e434;fill-opacity:1;fill-rule:evenodd;opacity:1;stroke:none;" d="M617.989,453.112 C617.989,453.112,653.989,453.112,653.989,453.112 C653.989,453.112,653.989,489.112,653.989,489.112 C653.989,489.112,617.989,489.112,617.989,489.112 C617.989,489.112,617.989,453.112,617.989,453.112 z"/>
    <path id="Path-1" style="fill:#f8e434;fill-opacity:1;fill-rule:evenodd;opacity:1;stroke:none;" d="M617.989,494 C617.989,494,653.989,494,653.989,494 C653.989,494,653.989,530,653.989,530 C653.989,530,617.989,530,617.989,530 C617.989,530,617.989,494,617.989,494 z"/>
    <path id="Path-2" style="fill:#f8e434;fill-opacity:1;fill-rule:evenodd;opacity:1;stroke:none;" d="M617.989,535.474 C617.989,535.474,653.989,535.474,653.989,535.474 C653.989,535.474,653.989,571.474,653.989,571.474 C653.989,571.474,617.989,571.474,617.989,571.474 C617.989,571.474,617.989,535.474,617.989,535.474 z"/>
    <path id="Path-3" style="fill:#f8e434;fill-opacity:1;fill-rule:evenodd;opacity:1;stroke:none;" d="M617.989,577.638 C617.989,577.638,653.989,577.638,653.989,577.638 C653.989,577.638,653.989,613.638,653.989,613.638 C653.989,613.638,617.989,613.638,617.989,613.638 C617.989,613.638,617.989,577.638,617.989,577.638 z"/>
    <path id="Path-4" style="fill:#f8e434;fill-opacity:1;fill-rule:evenodd;opacity:1;stroke:none;" d="M617.989,618.758 C617.989,618.758,653.989,618.758,653.989,618.758 C653.989,618.758,653.989,654.758,653.989,654.758 C653.989,654.758,617.989,654.758,617.989,654.758 C617.989,654.758,617.989,618.758,617.989,618.758 z"/>
    <path id="Path-5" style="fill:#f8e434;fill-opacity:1;fill-rule:evenodd;opacity:1;stroke:none;" d="M617.989,659.611 C617.989,659.611,653.989,659.611,653.989,659.611 C653.989,659.611,653.989,695.611,653.989,695.611 C653.989,695.611,617.989,695.611,617.989,695.611 C617.989,695.611,617.989,659.611,617.989,659.611 z"/>
    <path id="Path-6" style="fill:#f8e434;fill-opacity:1;fill-rule:evenodd;opacity:1;stroke:none;" d="M617.989,700.818 C617.989,700.818,653.989,700.818,653.989,700.818 C653.989,700.818,653.989,736.818,653.989,736.818 C653.989,736.818,617.989,736.818,617.989,736.818 C617.989,736.818,617.989,700.818,617.989,700.818 z"/>
  </g>
  <g id="Layer_15">
    <path id="Path" style="fill:#fabf21;fill-opacity:1;fill-rule:evenodd;opacity:1;stroke:none;" d="M659.469,453.112 C659.469,453.112,695.469,453.112,695.469,453.112 C695.469,453.112,695.469,489.112,695.469,489.112 C695.469,489.112,659.469,489.112,659.469,489.112 C659.469,489.112,659.469,453.112,659.469,453.112 z"/>
    <path id="Path-1" style="fill:#f9bf21;fill-opacity:1;fill-rule:evenodd;opacity:1;stroke:none;" d="M659.469,494 C659.469,494,695.469,494,695.469,494 C695.469,494,695.469,530,695.469,530 C695.469,530,659.469,530,659.469,530 C659.469,530,659.469,494,659.469,494 z"/>
    <path id="Path-2" style="fill:#f9bf21;fill-opacity:1;fill-rule:evenodd;opacity:1;stroke:none;" d="M659.469,535.474 C659.469,535.474,695.469,535.474,695.469,535.474 C695.469,535.474,695.469,571.474,695.469,571.474 C695.469,571.474,659.469,571.474,659.469,571.474 C659.469,571.474,659.469,535.474,659.469,535.474 z"/>
    <path id="Path-3" style="fill:#f9bf21;fill-opacity:1;fill-rule:evenodd;opacity:1;stroke:none;" d="M659.469,577.638 C659.469,577.638,695.469,577.638,695.469,577.638 C695.469,577.638,695.469,613.638,695.469,613.638 C695.469,613.638,659.469,613.638,659.469,613.638 C659.469,613.638,659.469,577.638,659.469,577.638 z"/>
    <path id="Path-4" style="fill:#f9bf21;fill-opacity:1;fill-rule:evenodd;opacity:1;stroke:none;" d="M659.469,411.638 C659.469,411.638,695.469,411.638,695.469,411.638 C695.469,411.638,695.469,447.638,695.469,447.638 C695.469,447.638,659.469,447.638,659.469,447.638 C659.469,447.638,659.469,411.638,659.469,411.638 z"/>
    <path id="Path-5" style="fill:#f9bf21;fill-opacity:1;fill-rule:evenodd;opacity:1;stroke:none;" d="M659.469,370.164 C659.469,370.164,695.469,370.164,695.469,370.164 C695.469,370.164,695.469,406.164,695.469,406.164 C695.469,406.164,659.469,406.164,659.469,406.164 C659.469,406.164,659.469,370.164,659.469,370.164 z"/>
  </g>
  <g id="Layer_16">
    <path id="Path" style="fill:#fa9b23;fill-opacity:1;fill-rule:evenodd;opacity:1;stroke:none;" d="M700.689,453.112 C700.689,453.112,736.689,453.112,736.689,453.112 C736.689,453.112,736.689,489.112,736.689,489.112 C736.689,489.112,700.689,489.112,700.689,489.112 C700.689,489.112,700.689,453.112,700.689,453.112 z"/>
    <path id="Path-1" style="fill:#f99a23;fill-opacity:1;fill-rule:evenodd;opacity:1;stroke:none;" d="M700.689,494 C700.689,494,736.689,494,736.689,494 C736.689,494,736.689,530,736.689,530 C736.689,530,700.689,530,700.689,530 C700.689,530,700.689,494,700.689,494 z"/>
    <path id="Path-2" style="fill:#f99a23;fill-opacity:1;fill-rule:evenodd;opacity:1;stroke:none;" d="M700.689,411.638 C700.689,411.638,736.689,411.638,736.689,411.638 C736.689,411.638,736.689,447.638,736.689,447.638 C736.689,447.638,700.689,447.638,700.689,447.638 C700.689,447.638,700.689,411.638,700.689,411.638 z"/>
    <path id="Path-3" style="fill:#f99a23;fill-opacity:1;fill-rule:evenodd;opacity:1;stroke:none;" d="M700.689,370.164 C700.689,370.164,736.689,370.164,736.689,370.164 C736.689,370.164,736.689,406.164,736.689,406.164 C736.689,406.164,700.689,406.164,700.689,406.164 C700.689,406.164,700.689,370.164,700.689,370.164 z"/>
    <path id="Path-4" style="fill:#f99a23;fill-opacity:1;fill-rule:evenodd;opacity:1;stroke:none;" d="M700.689,327.715 C700.689,327.715,736.689,327.715,736.689,327.715 C736.689,327.715,736.689,363.715,736.689,363.715 C736.689,363.715,700.689,363.715,700.689,363.715 C700.689,363.715,700.689,327.715,700.689,327.715 z"/>
    <path id="Path-5" style="fill:#f99a23;fill-opacity:1;fill-rule:evenodd;opacity:1;stroke:none;" d="M700.689,286.543 C700.689,286.543,736.689,286.543,736.689,286.543 C736.689,286.543,736.689,322.543,736.689,322.543 C736.689,322.543,700.689,322.543,700.689,322.543 C700.689,322.543,700.689,286.543,700.689,286.543 z"/>
  </g>
  <g id="Layer_17">
    <path id="Path" style="fill:#f9871d;fill-opacity:1;fill-rule:evenodd;opacity:1;stroke:none;" d="M741.574,494 C741.574,494,777.574,494,777.574,494 C777.574,494,777.574,530,777.574,530 C777.574,530,741.574,530,741.574,530 C741.574,530,741.574,494,741.574,494 z"/>
    <path id="Path-1" style="fill:#f9871d;fill-opacity:1;fill-rule:evenodd;opacity:1;stroke:none;" d="M741.574,535.474 C741.574,535.474,777.574,535.474,777.574,535.474 C777.574,535.474,777.574,571.474,777.574,571.474 C777.574,571.474,741.574,571.474,741.574,571.474 C741.574,571.474,741.574,535.474,741.574,535.474 z"/>
    <path id="Path-2" style="fill:#f9871d;fill-opacity:1;fill-rule:evenodd;opacity:1;stroke:none;" d="M741.574,453.112 C741.574,453.112,777.574,453.112,777.574,453.112 C777.574,453.112,777.574,489.112,777.574,489.112 C777.574,489.112,741.574,489.112,741.574,489.112 C741.574,489.112,741.574,453.112,741.574,453.112 z"/>
    <path id="Path-3" style="fill:#f9871d;fill-opacity:1;fill-rule:evenodd;opacity:1;stroke:none;" d="M741.574,411.638 C741.574,411.638,777.574,411.638,777.574,411.638 C777.574,411.638,777.574,447.638,777.574,447.638 C777.574,447.638,741.574,447.638,741.574,447.638 C741.574,447.638,741.574,411.638,741.574,411.638 z"/>
    <path id="Path-4" style="fill:#f9871d;fill-opacity:1;fill-rule:evenodd;opacity:1;stroke:none;" d="M741.574,370.164 C741.574,370.164,777.574,370.164,777.574,370.164 C777.574,370.164,777.574,406.164,777.574,406.164 C777.574,406.164,741.574,406.164,741.574,406.164 C741.574,406.164,741.574,370.164,741.574,370.164 z"/>
    <path id="Path-5" style="fill:#f9871d;fill-opacity:1;fill-rule:evenodd;opacity:1;stroke:none;" d="M741.574,327.715 C741.574,327.715,777.574,327.715,777.574,327.715 C777.574,327.715,777.574,363.715,777.574,363.715 C777.574,363.715,741.574,363.715,741.574,363.715 C741.574,363.715,741.574,327.715,741.574,327.715 z"/>
    <path id="Path-6" style="fill:#f9871d;fill-opacity:1;fill-rule:evenodd;opacity:1;stroke:none;" d="M741.574,286.543 C741.574,286.543,777.574,286.543,777.574,286.543 C777.574,286.543,777.574,322.543,777.574,322.543 C777.574,322.543,741.574,322.543,741.574,322.543 C741.574,322.543,741.574,286.543,741.574,286.543 z"/>
    <path id="Path-7" style="fill:#f9871d;fill-opacity:1;fill-rule:evenodd;opacity:1;stroke:none;" d="M741.574,245.718 C741.574,245.718,777.574,245.718,777.574,245.718 C777.574,245.718,777.574,281.718,777.574,281.718 C777.574,281.718,741.574,281.718,741.574,281.718 C741.574,281.718,741.574,245.718,741.574,245.718 z"/>
  </g>
  <g id="Layer_18">
    <path id="Path" style="fill:#f67414;fill-opacity:1;fill-rule:evenodd;opacity:1;stroke:none;" d="M783.13,494 C783.13,494,819.13,494,819.13,494 C819.13,494,819.13,530,819.13,530 C819.13,530,783.13,530,783.13,530 C783.13,530,783.13,494,783.13,494 z"/>
    <path id="Path-1" style="fill:#f67414;fill-opacity:1;fill-rule:evenodd;opacity:1;stroke:none;" d="M783.13,535.474 C783.13,535.474,819.13,535.474,819.13,535.474 C819.13,535.474,819.13,571.474,819.13,571.474 C819.13,571.474,783.13,571.474,783.13,571.474 C783.13,571.474,783.13,535.474,783.13,535.474 z"/>
    <path id="Path-2" style="fill:#f67414;fill-opacity:1;fill-rule:evenodd;opacity:1;stroke:none;" d="M783.13,577.638 C783.13,577.638,819.13,577.638,819.13,577.638 C819.13,577.638,819.13,613.638,819.13,613.638 C819.13,613.638,783.13,613.638,783.13,613.638 C783.13,613.638,783.13,577.638,783.13,577.638 z"/>
    <path id="Path-3" style="fill:#f67414;fill-opacity:1;fill-rule:evenodd;opacity:1;stroke:none;" d="M783.13,618.758 C783.13,618.758,819.13,618.758,819.13,618.758 C819.13,618.758,819.13,654.758,819.13,654.758 C819.13,654.758,783.13,654.758,783.13,654.758 C783.13,654.758,783.13,618.758,783.13,618.758 z"/>
    <path id="Path-4" style="fill:#f67414;fill-opacity:1;fill-rule:evenodd;opacity:1;stroke:none;" d="M783.13,411.638 C783.13,411.638,819.13,411.638,819.13,411.638 C819.13,411.638,819.13,447.638,819.13,447.638 C819.13,447.638,783.13,447.638,783.13,447.638 C783.13,447.638,783.13,411.638,783.13,411.638 z"/>
    <path id="Path-5" style="fill:#f67414;fill-opacity:1;fill-rule:evenodd;opacity:1;stroke:none;" d="M783.13,370.164 C783.13,370.164,819.13,370.164,819.13,370.164 C819.13,370.164,819.13,406.164,819.13,406.164 C819.13,406.164,783.13,406.164,783.13,406.164 C783.13,406.164,783.13,370.164,783.13,370.164 z"/>
    <path id="Path-6" style="fill:#f67414;fill-opacity:1;fill-rule:evenodd;opacity:1;stroke:none;" d="M783.13,453.112 C783.13,453.112,819.13,453.112,819.13,453.112 C819.13,453.112,819.13,489.112,819.13,489.112 C819.13,489.112,783.13,489.112,783.13,489.112 C783.13,489.112,783.13,453.112,783.13,453.112 z"/>
  </g>
  <g id="Layer_19">
    <path id="Path" style="fill:#f65021;fill-opacity:1;fill-rule:evenodd;opacity:1;stroke:none;" d="M823.68,453.112 C823.68,453.112,859.68,453.112,859.68,453.112 C859.68,453.112,859.68,489.112,859.68,489.112 C859.68,489.112,823.68,489.112,823.68,489.112 C823.68,489.112,823.68,453.112,823.68,453.112 z"/>
    <path id="Path-1" style="fill:#f65021;fill-opacity:1;fill-rule:evenodd;opacity:1;stroke:none;" d="M823.68,494 C823.68,494,859.68,494,859.68,494 C859.68,494,859.68,530,859.68,530 C859.68,530,823.68,530,823.68,530 C823.68,530,823.68,494,823.68,494 z"/>
    <path id="Path-2" style="fill:#f65021;fill-opacity:1;fill-rule:evenodd;opacity:1;stroke:none;" d="M823.68,535.474 C823.68,535.474,859.68,535.474,859.68,535.474 C859.68,535.474,859.68,571.474,859.68,571.474 C859.68,571.474,823.68,571.474,823.68,571.474 C823.68,571.474,823.68,535.474,823.68,535.474 z"/>
    <path id="Path-3" style="fill:#f65021;fill-opacity:1;fill-rule:evenodd;opacity:1;stroke:none;" d="M823.68,577.638 C823.68,577.638,859.68,577.638,859.68,577.638 C859.68,577.638,859.68,613.638,859.68,613.638 C859.68,613.638,823.68,613.638,823.68,613.638 C823.68,613.638,823.68,577.638,823.68,577.638 z"/>
    <path id="Path-4" style="fill:#f65021;fill-opacity:1;fill-rule:evenodd;opacity:1;stroke:none;" d="M823.68,618.758 C823.68,618.758,859.68,618.758,859.68,618.758 C859.68,618.758,859.68,654.758,859.68,654.758 C859.68,654.758,823.68,654.758,823.68,654.758 C823.68,654.758,823.68,618.758,823.68,618.758 z"/>
    <path id="Path-5" style="fill:#f65021;fill-opacity:1;fill-rule:evenodd;opacity:1;stroke:none;" d="M823.68,659.611 C823.68,659.611,859.68,659.611,859.68,659.611 C859.68,659.611,859.68,695.611,859.68,695.611 C859.68,695.611,823.68,695.611,823.68,695.611 C823.68,695.611,823.68,659.611,823.68,659.611 z"/>
  </g>
  <g id="Layer_20">
    <path id="Path" style="fill:#f0422c;fill-opacity:1;fill-rule:evenodd;opacity:1;stroke:none;" d="M865.571,453.112 C865.571,453.112,901.571,453.112,901.571,453.112 C901.571,453.112,901.571,489.112,901.571,489.112 C901.571,489.112,865.571,489.112,865.571,489.112 C865.571,489.112,865.571,453.112,865.571,453.112 z"/>
    <path id="Path-1" style="fill:#f0422b;fill-opacity:1;fill-rule:evenodd;opacity:1;stroke:none;" d="M865.571,411.638 C865.571,411.638,901.571,411.638,901.571,411.638 C901.571,411.638,901.571,447.638,901.571,447.638 C901.571,447.638,865.571,447.638,865.571,447.638 C865.571,447.638,865.571,411.638,865.571,411.638 z"/>
    <path id="Path-2" style="fill:#f0422b;fill-opacity:1;fill-rule:evenodd;opacity:1;stroke:none;" d="M865.571,494 C865.571,494,901.571,494,901.571,494 C901.571,494,901.571,530,901.571,530 C901.571,530,865.571,530,865.571,530 C865.571,530,865.571,494,865.571,494 z"/>
    <path id="Path-3" style="fill:#f0422b;fill-opacity:1;fill-rule:evenodd;opacity:1;stroke:none;" d="M865.571,535.474 C865.571,535.474,901.571,535.474,901.571,535.474 C901.571,535.474,901.571,571.474,901.571,571.474 C901.571,571.474,865.571,571.474,865.571,571.474 C865.571,571.474,865.571,535.474,865.571,535.474 z"/>
    <path id="Path-4" style="fill:#f0422b;fill-opacity:1;fill-rule:evenodd;opacity:1;stroke:none;" d="M865.571,577.638 C865.571,577.638,901.571,577.638,901.571,577.638 C901.571,577.638,901.571,613.638,901.571,613.638 C901.571,613.638,865.571,613.638,865.571,613.638 C865.571,613.638,865.571,577.638,865.571,577.638 z"/>
  </g>
  <g id="Layer_21">
    <path id="Path" style="fill:#f8352b;fill-opacity:1;fill-rule:evenodd;opacity:1;stroke:none;" d="M906.91,453.112 C906.91,453.112,942.91,453.112,942.91,453.112 C942.91,453.112,942.91,489.112,942.91,489.112 C942.91,489.112,906.91,489.112,906.91,489.112 C906.91,489.112,906.91,453.112,906.91,453.112 z"/>
    <path id="Path-1" style="fill:#f8342a;fill-opacity:1;fill-rule:evenodd;opacity:1;stroke:none;" d="M906.91,494 C906.91,494,942.91,494,942.91,494 C942.91,494,942.91,530,942.91,530 C942.91,530,906.91,530,906.91,530 C906.91,530,906.91,494,906.91,494 z"/>
  </g>
  <g id="Layer_22">
    <path id="Path" style="fill:#f63125;fill-opacity:1;fill-rule:evenodd;opacity:1;stroke:none;" d="M947.536,494 C947.536,494,983.536,494,983.536,494 C983.536,494,983.536,530,983.536,530 C983.536,530,947.536,530,947.536,530 C947.536,530,947.536,494,947.536,494 z"/>
  </g>
</svg>
