<?xml version="1.0" standalone="no"?>
<!DOCTYPE svg PUBLIC "-//W3C//DTD SVG 20010904//EN"
 "http://www.w3.org/TR/2001/REC-SVG-20010904/DTD/svg10.dtd">
<svg version="1.0" xmlns="http://www.w3.org/2000/svg"
 width="1024.000000pt" height="1024.000000pt" viewBox="0 0 1024.000000 1024.000000"
 preserveAspectRatio="xMidYMid meet">

<g transform="translate(0.000000,1024.000000) scale(0.100000,-0.100000)"
fill="#000000" stroke="none">
<path d="M5110 9350 c0 -5 -13 -10 -30 -10 -16 0 -30 -4 -30 -10 0 -5 -9 -10
-20 -10 -11 0 -20 -4 -20 -10 0 -5 -13 -10 -30 -10 -16 0 -30 -4 -30 -10 0 -5
-9 -10 -19 -10 -11 0 -23 -4 -26 -10 -3 -5 -17 -10 -31 -10 -13 0 -24 -4 -24
-10 0 -5 -11 -10 -24 -10 -14 0 -28 -4 -31 -10 -3 -5 -15 -10 -26 -10 -10 0
-19 -4 -19 -10 0 -5 -13 -10 -30 -10 -16 0 -30 -4 -30 -10 0 -5 -9 -10 -20
-10 -11 0 -20 -3 -20 -6 0 -11 29 -34 44 -34 9 0 16 -4 16 -10 0 -5 14 -10 30
-10 17 0 30 -4 30 -10 0 -5 9 -10 20 -10 11 0 20 -4 20 -10 0 -5 14 -10 30
-10 17 0 30 -4 30 -10 0 -5 14 -10 30 -10 17 0 30 -4 30 -10 0 -5 9 -10 20
-10 11 0 20 -4 20 -10 0 -5 14 -10 30 -10 17 0 30 -4 30 -10 0 -5 9 -10 20
-10 11 0 20 -4 20 -10 0 -5 14 -10 30 -10 17 0 30 -4 30 -10 0 -5 9 -10 20
-10 11 0 20 -4 20 -10 0 -5 14 -10 30 -10 17 0 30 -4 30 -10 0 -5 14 -10 30
-10 17 0 30 -4 30 -10 0 -5 9 -10 20 -10 11 0 20 -4 20 -10 0 -5 14 -10 30
-10 17 0 30 -4 30 -10 0 -5 9 -10 20 -10 11 0 20 -4 20 -10 0 -5 14 -10 30
-10 17 0 30 -4 30 -10 0 -5 9 -10 20 -10 11 0 20 -4 20 -10 0 -5 14 -10 30
-10 17 0 30 -4 30 -10 0 -5 9 -10 20 -10 11 0 20 -3 20 -6 0 -13 -30 -34 -49
-34 -11 0 -23 -4 -26 -10 -3 -5 -19 -10 -36 -10 -16 0 -29 -4 -29 -10 0 -5 -9
-10 -20 -10 -11 0 -20 -4 -20 -10 0 -5 -13 -10 -30 -10 -16 0 -30 -4 -30 -10
0 -5 -9 -10 -20 -10 -11 0 -20 -4 -20 -10 0 -5 -13 -10 -30 -10 -16 0 -30 -4
-30 -10 0 -5 -9 -10 -20 -10 -11 0 -20 -4 -20 -10 0 -5 -13 -10 -30 -10 -16 0
-30 -4 -30 -10 0 -18 -97 -11 -135 10 -20 11 -42 20 -50 20 -8 0 -30 9 -50 20
-20 11 -42 20 -50 20 -8 0 -30 9 -50 20 -20 11 -44 20 -55 20 -10 0 -22 5 -25
10 -3 6 -15 10 -25 10 -11 0 -35 9 -55 20 -20 11 -47 20 -60 20 -14 0 -25 3
-25 8 0 8 -49 32 -67 32 -7 0 -28 9 -48 20 -20 11 -44 20 -55 20 -10 0 -22 5
-25 10 -3 6 -15 10 -25 10 -11 0 -35 9 -55 20 -20 11 -42 20 -50 20 -8 0 -30
9 -50 20 -20 11 -44 20 -55 20 -10 0 -22 5 -25 10 -3 6 -24 10 -46 10 -21 0
-39 -4 -39 -10 0 -5 -7 -10 -15 -10 -8 0 -23 -4 -33 -9 -9 -5 -30 -14 -47 -21
-16 -7 -38 -16 -47 -21 -10 -5 -27 -9 -38 -9 -11 0 -20 -4 -20 -10 0 -5 -9
-10 -19 -10 -11 0 -23 -4 -26 -10 -3 -5 -15 -10 -25 -10 -11 0 -35 -9 -55 -20
-20 -11 -42 -20 -50 -20 -9 0 -24 -4 -35 -10 -11 -5 -29 -14 -40 -20 -11 -5
-27 -10 -35 -10 -8 0 -15 -4 -15 -10 0 -5 -13 -10 -30 -10 -16 0 -30 -4 -30
-10 0 -5 -9 -10 -20 -10 -11 0 -20 -4 -20 -10 0 -5 -13 -10 -30 -10 -16 0 -30
-4 -30 -10 0 -5 -9 -10 -20 -10 -11 0 -20 -4 -20 -10 0 -5 -13 -10 -30 -10
-16 0 -30 -4 -30 -10 0 -5 -9 -10 -19 -10 -11 0 -23 -4 -26 -10 -3 -5 -17 -10
-31 -10 -13 0 -24 -4 -24 -10 0 -5 -9 -10 -19 -10 -11 0 -23 -4 -26 -10 -3 -5
-17 -10 -31 -10 -13 0 -24 -4 -24 -10 0 -5 -13 -10 -30 -10 -16 0 -30 -4 -30
-10 0 -5 -9 -10 -19 -10 -11 0 -23 -4 -26 -10 -3 -5 -15 -10 -25 -10 -11 0
-35 -9 -55 -20 -20 -11 -44 -20 -55 -20 -10 0 -22 -4 -25 -10 -3 -5 -17 -10
-31 -10 -13 0 -24 -4 -24 -10 0 -5 -9 -10 -19 -10 -11 0 -23 -4 -26 -10 -3 -5
-17 -10 -31 -10 -13 0 -24 -4 -24 -10 0 -5 -9 -10 -19 -10 -11 0 -23 -4 -26
-10 -3 -5 -15 -10 -25 -10 -11 0 -35 -9 -55 -20 -20 -11 -42 -20 -50 -20 -8 0
-30 -9 -50 -20 -20 -11 -42 -20 -50 -20 -9 0 -23 -4 -33 -9 -9 -5 -30 -14 -47
-21 -16 -7 -38 -16 -47 -21 -10 -5 -27 -9 -38 -9 -11 0 -20 -4 -20 -10 0 -5
-9 -10 -19 -10 -11 0 -23 -4 -26 -10 -3 -5 -14 -10 -24 -10 -10 0 -32 -7 -50
-16 -30 -15 -31 -17 -14 -30 10 -7 28 -14 40 -14 12 0 25 -4 28 -10 3 -5 15
-10 26 -10 10 0 19 -4 19 -10 0 -5 9 -10 20 -10 11 0 35 -9 55 -20 20 -11 47
-20 60 -20 14 0 25 -4 25 -10 0 -5 9 -10 20 -10 11 0 20 -4 20 -10 0 -5 11
-10 24 -10 14 0 28 -4 31 -10 3 -5 15 -10 26 -10 10 0 19 -4 19 -10 0 -5 14
-10 30 -10 17 0 30 -4 30 -10 0 -5 14 -10 30 -10 17 0 30 -4 30 -10 0 -5 9
-10 20 -10 11 0 20 -4 20 -10 0 -5 14 -10 30 -10 17 0 30 -4 30 -10 0 -5 9
-10 20 -10 11 0 20 -4 20 -10 0 -5 14 -10 30 -10 17 0 30 -4 30 -10 0 -5 9
-10 20 -10 11 0 20 -4 20 -10 0 -5 14 -10 30 -10 17 0 30 -4 30 -10 0 -5 14
-10 30 -10 17 0 30 -4 30 -10 0 -5 9 -10 20 -10 11 0 20 -4 20 -10 0 -5 14
-10 30 -10 17 0 30 -4 30 -10 0 -5 -13 -10 -30 -10 -16 0 -30 -4 -30 -10 0 -5
-9 -10 -20 -10 -11 0 -20 -4 -20 -10 0 -5 -13 -10 -30 -10 -16 0 -30 -4 -30
-10 0 -5 -9 -10 -20 -10 -11 0 -20 -4 -20 -10 0 -5 -13 -10 -30 -10 -16 0 -30
-4 -30 -10 0 -5 -9 -10 -20 -10 -11 0 -20 -4 -20 -10 0 -5 -13 -10 -30 -10
-16 0 -30 -4 -30 -10 0 -5 -13 -10 -30 -10 -16 0 -30 -4 -30 -10 0 -5 -9 -10
-20 -10 -11 0 -20 -4 -20 -10 0 -5 -20 -10 -44 -10 -25 0 -48 5 -51 10 -3 6
-17 10 -30 10 -13 0 -27 5 -30 10 -3 6 -15 10 -25 10 -11 0 -35 9 -55 20 -20
11 -42 20 -50 20 -8 0 -30 9 -50 20 -20 11 -42 20 -50 20 -8 0 -30 9 -50 20
-20 11 -44 20 -55 20 -10 0 -22 5 -25 10 -3 6 -15 10 -25 10 -11 0 -35 9 -55
20 -20 11 -42 20 -50 20 -8 0 -30 9 -50 20 -20 11 -42 20 -50 20 -8 0 -30 9
-50 20 -20 11 -42 20 -50 20 -8 0 -30 9 -50 20 -20 11 -47 20 -60 20 -14 0
-25 5 -25 10 0 6 -11 10 -24 10 -14 0 -28 5 -31 10 -3 6 -24 10 -46 10 -21 0
-39 -4 -39 -10 0 -5 -11 -10 -24 -10 -14 0 -28 -4 -31 -10 -3 -5 -15 -10 -26
-10 -10 0 -19 -4 -19 -10 0 -5 -9 -10 -19 -10 -11 0 -23 -4 -26 -10 -3 -5 -15
-10 -25 -10 -11 0 -35 -9 -55 -20 -20 -11 -44 -20 -55 -20 -10 0 -22 -4 -25
-10 -3 -5 -17 -10 -31 -10 -13 0 -24 -4 -24 -10 0 -5 -9 -10 -19 -10 -11 0
-23 -4 -26 -10 -3 -5 -17 -10 -31 -10 l-24 0 0 -667 c1 -452 -3 -669 -10 -671
-14 -5 -14 -658 0 -667 14 -8 14 -662 0 -670 -14 -9 -14 -1325 0 -1325 6 0 10
-120 10 -340 0 -220 -4 -340 -10 -340 -6 0 -10 -116 -10 -328 l0 -329 52 -23
c101 -44 118 -51 180 -71 34 -11 72 -26 85 -34 12 -8 29 -15 37 -15 15 0 65
-20 151 -61 22 -11 48 -19 57 -19 9 0 19 -4 22 -9 3 -4 26 -14 51 -21 25 -7
48 -17 51 -21 3 -5 14 -9 24 -9 11 0 35 -9 55 -20 20 -11 42 -20 50 -20 8 0
30 -9 50 -20 20 -11 41 -20 48 -20 7 0 32 -9 55 -20 22 -11 48 -20 56 -20 8 0
18 -4 21 -10 3 -5 15 -10 25 -10 11 0 35 -9 55 -20 20 -11 42 -20 50 -20 8 0
30 -9 50 -20 20 -11 42 -20 50 -20 8 0 30 -9 50 -20 20 -11 44 -20 53 -20 10
0 22 -4 27 -8 6 -5 39 -19 75 -31 36 -12 84 -31 107 -42 24 -10 47 -19 53 -19
5 0 29 -9 52 -19 24 -10 68 -29 98 -41 30 -12 63 -26 72 -31 10 -5 25 -9 33
-9 8 0 15 -7 15 -15 0 -8 7 -15 16 -15 13 0 10 -6 -10 -27 -23 -22 -29 -25
-37 -13 -7 12 -9 11 -9 -5 0 -23 -123 -122 -146 -117 -9 2 -12 -3 -7 -14 5
-14 3 -16 -11 -11 -10 4 -15 3 -11 -3 3 -6 -1 -13 -10 -17 -9 -3 -31 -19 -48
-34 -33 -30 -47 -36 -47 -19 0 6 -5 10 -11 10 -8 0 -8 -4 0 -14 15 -18 0 -29
-26 -19 -15 6 -16 4 -6 -8 10 -12 8 -17 -9 -28 -15 -9 -23 -10 -31 -2 -6 6
-15 11 -21 11 -5 0 -2 -6 8 -13 16 -12 16 -14 -3 -31 -11 -10 -25 -15 -32 -10
-9 5 -10 2 -6 -9 5 -13 1 -17 -14 -17 -13 0 -18 -4 -13 -12 5 -8 2 -9 -9 -5
-10 4 -17 1 -17 -6 -1 -12 -40 -42 -125 -98 -22 -14 -46 -33 -54 -43 -9 -11
-21 -14 -35 -10 -18 6 -19 5 -8 -9 11 -13 8 -17 -17 -28 -16 -7 -28 -16 -25
-20 5 -8 -87 -69 -104 -69 -7 0 -12 -7 -12 -15 0 -8 -7 -15 -15 -15 -8 0 -15
-4 -15 -8 0 -4 -12 -15 -27 -24 -16 -9 -39 -27 -53 -40 -13 -13 -41 -34 -61
-48 -21 -14 -58 -44 -84 -67 -25 -24 -49 -43 -52 -43 -3 0 -20 -12 -38 -27
-65 -56 -99 -78 -117 -77 -9 0 -15 -3 -12 -8 5 -8 -38 -49 -51 -48 -3 0 -13
-8 -24 -17 -17 -17 -51 -45 -113 -93 -31 -24 -37 -17 -11 12 21 23 12 23 -15
-1 -12 -10 -19 -21 -16 -24 3 -3 -11 -21 -31 -39 -41 -36 -92 -67 -81 -49 4 6
2 11 -3 11 -6 0 -11 -8 -11 -18 0 -10 -18 -31 -40 -48 -23 -16 -50 -37 -62
-47 -12 -10 -38 -27 -58 -39 -19 -12 -39 -26 -45 -33 -5 -6 -53 -44 -105 -84
-52 -40 -96 -77 -98 -82 -2 -5 263 -9 640 -9 l643 0 25 56 c13 31 32 60 40 64
24 13 64 95 69 142 1 4 7 13 14 20 6 7 20 31 30 52 15 31 21 37 28 25 7 -10 8
-7 4 11 -5 24 5 42 65 106 11 12 20 26 20 30 0 5 -5 2 -10 -6 -20 -31 -9 6 12
40 12 19 34 59 50 89 16 30 38 61 49 69 10 7 17 17 14 23 -3 5 6 26 20 46 14
21 25 44 25 51 0 7 4 10 10 7 6 -3 7 1 4 9 -3 9 -1 16 5 16 6 0 11 5 11 11 0
6 15 36 33 66 17 30 46 80 63 110 17 30 38 63 47 74 9 10 17 23 17 27 0 18 47
101 54 95 3 -3 6 1 6 9 0 9 8 19 17 22 13 5 14 9 5 15 -9 5 -8 12 5 27 10 11
19 26 21 34 2 8 8 20 14 25 8 7 8 6 3 -4 -5 -9 -4 -12 3 -7 6 4 9 13 6 21 -3
8 0 20 6 27 12 13 48 76 109 191 31 57 47 69 57 44 5 -14 19 -17 72 -17 17 0
32 -4 32 -10 0 -5 9 -10 19 -10 11 0 23 -4 26 -10 3 -5 15 -10 25 -10 11 0 35
-9 55 -20 20 -11 44 -20 55 -20 10 0 22 -5 25 -10 3 -5 15 -10 25 -10 11 0 35
-9 55 -20 20 -11 41 -20 48 -20 18 0 67 -24 67 -32 0 -5 10 -8 23 -8 13 0 42
-9 65 -20 22 -11 48 -20 56 -20 8 0 18 -4 21 -10 3 -5 15 -10 26 -10 19 0 75
-22 152 -61 22 -10 46 -19 55 -19 10 0 32 -9 50 -20 18 -11 41 -20 52 -20 10
0 21 -4 24 -8 3 -5 38 -19 78 -32 40 -13 88 -32 106 -42 18 -10 39 -18 47 -18
8 0 34 -9 57 -19 82 -37 133 -57 178 -71 25 -8 60 -22 78 -32 18 -10 39 -18
47 -18 8 0 30 -9 50 -20 20 -11 42 -20 50 -20 8 0 30 -9 50 -20 20 -11 41 -20
48 -20 18 0 67 -24 67 -32 0 -5 13 -8 29 -8 17 0 33 -4 36 -10 3 -5 17 -10 31
-10 13 0 24 -4 24 -10 0 -6 37 -10 90 -10 53 0 90 4 90 10 0 6 9 10 19 10 11
0 23 4 26 10 3 5 14 10 24 10 21 0 71 22 71 33 0 4 14 7 30 7 17 0 30 5 30 10
0 6 9 10 20 10 11 0 20 5 20 10 0 6 13 10 29 10 17 0 33 4 36 10 3 5 17 10 31
10 13 0 24 5 24 10 0 6 9 10 20 10 11 0 20 5 20 10 0 6 14 10 30 10 17 0 30 5
30 10 0 6 9 10 19 10 11 0 23 4 26 10 3 5 14 10 24 10 21 0 71 22 71 33 0 4
10 7 23 7 26 0 77 21 77 33 0 4 14 7 30 7 17 0 30 5 30 10 0 6 9 10 19 10 11
0 23 5 26 10 3 6 17 10 31 10 13 0 24 5 24 10 0 6 14 10 30 10 17 0 30 5 30
10 0 6 9 10 20 10 11 0 20 5 20 10 0 6 14 10 30 10 17 0 30 5 30 10 0 6 9 10
20 10 11 0 20 5 20 10 0 6 14 10 30 10 17 0 30 5 30 10 0 6 9 10 19 10 11 0
23 4 26 10 3 5 17 10 31 10 13 0 24 5 24 10 0 6 14 10 30 10 17 0 30 5 30 10
0 6 9 10 20 10 11 0 20 5 20 10 0 6 14 10 30 10 17 0 30 5 30 10 0 6 9 10 20
10 11 0 20 5 20 10 0 6 14 10 30 10 17 0 30 3 30 8 0 10 50 32 72 32 16 0 34
6 103 36 17 7 48 19 70 27 22 8 65 25 95 37 30 12 82 32 115 44 33 12 75 29
94 39 19 9 40 17 47 17 8 0 35 9 61 21 125 55 126 55 258 103 33 12 75 29 94
39 19 9 39 17 46 17 6 0 29 9 51 19 24 12 43 16 50 10 6 -5 15 -4 22 3 7 7 12
9 12 5 0 -4 9 2 20 13 11 11 29 18 42 16 13 -1 28 4 34 13 10 13 14 13 28 2 9
-8 19 -11 23 -7 3 3 1 6 -5 6 -7 0 -12 5 -12 11 0 6 7 9 15 5 8 -3 15 -2 15 3
0 10 36 23 68 24 12 1 22 4 22 8 0 11 60 39 82 39 10 0 18 -4 18 -10 0 -5 5
-10 11 -10 8 0 8 4 0 14 -10 11 -6 17 20 30 18 9 43 16 56 16 12 0 23 3 23 8
0 11 58 34 69 28 5 -3 14 1 21 9 7 8 23 15 36 15 12 0 26 5 29 10 3 6 15 10
26 10 10 0 19 5 19 10 0 6 11 10 24 10 13 0 29 7 36 15 7 8 16 12 21 9 5 -3 9
2 9 10 0 10 9 16 24 16 14 0 28 4 31 10 3 6 15 10 26 10 10 0 19 5 19 10 0 6
14 10 30 10 17 0 30 5 30 10 0 6 9 10 20 10 11 0 20 5 20 10 0 6 14 10 30 10
17 0 30 5 30 10 0 6 9 10 19 10 11 0 23 5 26 10 3 6 17 10 31 10 13 0 24 5 24
10 0 6 14 10 30 10 17 0 30 5 30 10 0 6 9 10 20 10 11 0 20 5 20 10 0 6 14 10
30 10 17 0 30 5 30 10 0 6 9 10 20 10 20 0 20 7 20 2680 l0 2680 -30 0 c-16 0
-30 3 -30 8 0 10 -50 32 -71 32 -10 0 -21 5 -24 10 -3 6 -15 10 -25 10 -11 0
-35 9 -55 20 -20 11 -42 20 -50 20 -8 0 -30 9 -50 20 -20 11 -42 20 -50 20 -8
0 -30 9 -50 20 -37 21 -105 27 -105 10 0 -5 -13 -10 -30 -10 -16 0 -30 -4 -30
-10 0 -5 -9 -10 -20 -10 -11 0 -20 -4 -20 -10 0 -5 -13 -10 -30 -10 -16 0 -30
-4 -30 -10 0 -5 -9 -10 -20 -10 -11 0 -20 -4 -20 -10 0 -5 -13 -10 -30 -10
-16 0 -30 -4 -30 -10 0 -5 -9 -10 -20 -10 -11 0 -20 -4 -20 -10 0 -5 -13 -10
-30 -10 -16 0 -30 -4 -30 -10 0 -5 -13 -10 -30 -10 -16 0 -30 -4 -30 -10 0 -5
-22 -10 -50 -10 -27 0 -50 5 -50 10 0 6 -13 10 -30 10 -16 0 -30 5 -30 10 0 6
-9 10 -20 10 -11 0 -20 5 -20 10 0 6 -13 10 -30 10 -16 0 -30 5 -30 10 0 6 -9
10 -20 10 -11 0 -20 5 -20 10 0 6 -13 10 -30 10 -16 0 -30 5 -30 10 0 6 -9 10
-20 10 -11 0 -20 5 -20 10 0 6 -13 10 -30 10 -16 0 -30 5 -30 10 0 6 -13 10
-30 10 -16 0 -30 5 -30 10 0 6 -18 10 -40 10 -22 0 -40 -4 -40 -10 0 -5 -13
-10 -30 -10 -16 0 -30 -4 -30 -10 0 -5 -9 -10 -20 -10 -11 0 -20 -4 -20 -10 0
-5 -13 -10 -30 -10 -16 0 -30 -4 -30 -10 0 -5 -9 -10 -20 -10 -11 0 -20 -4
-20 -10 0 -5 -13 -10 -30 -10 -16 0 -30 -4 -30 -10 0 -5 -13 -10 -30 -10 -16
0 -30 -4 -30 -10 0 -5 -9 -10 -20 -10 -11 0 -20 -4 -20 -10 0 -5 -13 -10 -30
-10 -16 0 -30 -4 -30 -10 0 -5 -9 -10 -20 -10 -11 0 -20 -4 -20 -10 0 -5 -16
-1 -35 10 -20 11 -42 20 -50 20 -8 0 -30 9 -50 20 -20 11 -42 20 -50 20 -8 0
-30 9 -50 20 -20 11 -44 20 -55 20 -10 0 -22 5 -25 10 -3 6 -15 10 -25 10 -11
0 -35 9 -55 20 -20 11 -44 20 -55 20 -10 0 -22 5 -25 10 -3 6 -15 10 -26 10
-10 0 -19 5 -19 10 0 6 14 10 30 10 17 0 30 5 30 10 0 6 9 10 20 10 11 0 20 5
20 10 0 6 14 10 30 10 17 0 30 5 30 10 0 6 9 10 20 10 11 0 20 5 20 10 0 6 14
10 30 10 17 0 30 5 30 10 0 6 14 10 30 10 17 0 30 5 30 10 0 6 9 10 20 10 11
0 20 5 20 10 0 6 14 10 30 10 17 0 30 5 30 10 0 6 9 10 20 10 11 0 20 5 20 10
0 6 23 10 50 10 28 0 50 -4 50 -10 0 -5 9 -10 20 -10 11 0 20 -4 20 -10 0 -5
14 -10 30 -10 17 0 30 -4 30 -10 0 -5 14 -10 30 -10 17 0 30 -4 30 -10 0 -5 9
-10 20 -10 11 0 20 -4 20 -10 0 -5 14 -10 30 -10 17 0 30 -4 30 -10 0 -5 9
-10 20 -10 11 0 20 -4 20 -10 0 -5 14 -10 30 -10 17 0 30 -4 30 -10 0 -5 9
-10 20 -10 11 0 20 -4 20 -10 0 -19 107 -11 145 10 20 11 44 20 55 20 10 0 22
5 25 10 3 6 15 10 25 10 11 0 35 9 55 20 20 11 42 20 49 20 7 0 28 8 47 17 19
10 40 18 47 19 23 4 112 49 112 57 0 4 -9 7 -19 7 -11 0 -23 5 -26 10 -3 6
-17 10 -31 10 -13 0 -24 5 -24 10 0 6 -9 10 -19 10 -11 0 -23 5 -26 10 -3 6
-15 10 -25 10 -11 0 -35 9 -55 20 -20 11 -41 20 -48 20 -18 0 -67 24 -67 33 0
4 -13 7 -29 7 -17 0 -33 5 -36 10 -3 6 -14 10 -24 10 -21 0 -71 22 -71 33 0 4
-13 7 -30 7 -16 0 -30 5 -30 10 0 6 -9 10 -20 10 -11 0 -20 5 -20 10 0 6 -13
10 -30 10 -16 0 -30 5 -30 10 0 6 -9 10 -20 10 -11 0 -20 5 -20 10 0 6 -13 10
-30 10 -16 0 -30 5 -30 10 0 6 -11 10 -24 10 -14 0 -28 5 -31 10 -3 6 -15 10
-26 10 -10 0 -19 5 -19 10 0 6 -13 10 -30 10 -16 0 -30 5 -30 10 0 6 -9 10
-20 10 -11 0 -20 5 -20 10 0 6 -13 10 -30 10 -16 0 -30 5 -30 10 0 6 -9 10
-20 10 -11 0 -20 5 -20 10 0 6 -13 10 -30 10 -16 0 -30 5 -30 10 0 6 -9 10
-20 10 -11 0 -20 5 -20 10 0 6 -13 10 -30 10 -16 0 -30 5 -30 10 0 6 -13 10
-30 10 -16 0 -30 5 -30 10 0 6 -9 10 -20 10 -11 0 -20 5 -20 10 0 6 -13 10
-30 10 -16 0 -30 5 -30 10 0 6 -9 10 -20 10 -11 0 -20 5 -20 10 0 6 -13 10
-30 10 -16 0 -30 5 -30 10 0 6 -9 10 -20 10 -11 0 -20 5 -20 10 0 6 -13 10
-30 10 -16 0 -30 5 -30 10 0 6 -9 10 -20 10 -11 0 -20 5 -20 10 0 6 -13 10
-30 10 -16 0 -30 5 -30 10 0 6 -13 10 -30 10 -16 0 -30 5 -30 10 0 6 -9 10
-20 10 -11 0 -20 5 -20 10 0 6 -13 10 -30 10 -16 0 -30 5 -30 10 0 6 -9 10
-20 10 -11 0 -20 5 -20 10 0 6 -13 10 -30 10 -16 0 -30 5 -30 10 0 6 -9 10
-20 10 -11 0 -20 5 -20 10 0 6 -13 10 -29 10 -17 0 -33 5 -36 10 -3 6 -17 10
-31 10 -13 0 -24 5 -24 10 0 6 -9 10 -19 10 -11 0 -23 5 -26 10 -3 6 -17 10
-31 10 -13 0 -24 5 -24 10 0 6 -9 10 -19 10 -11 0 -23 5 -26 10 -3 6 -17 10
-31 10 -13 0 -24 5 -24 10 0 6 -9 10 -20 10 -11 0 -20 5 -20 10 0 6 -13 10
-30 10 -16 0 -30 5 -30 10 0 6 -9 10 -20 10 -11 0 -20 5 -20 10 0 6 -13 10
-30 10 -16 0 -30 5 -30 10 0 6 -13 10 -30 10 -16 0 -45 9 -65 20 -20 11 -42
20 -50 20 -8 0 -30 9 -50 20 -20 11 -42 20 -50 20 -8 0 -30 9 -50 20 -20 11
-44 20 -55 20 -10 0 -22 5 -25 10 -3 6 -15 10 -25 10 -11 0 -35 9 -55 20 -20
11 -44 20 -55 20 -10 0 -22 5 -25 10 -3 6 -15 10 -26 10 -10 0 -19 -4 -19 -10z
m-960 -800 c0 -5 14 -10 30 -10 17 0 30 -4 30 -10 0 -5 9 -10 20 -10 11 0 20
-4 20 -10 0 -5 14 -10 30 -10 17 0 30 -4 30 -10 0 -5 14 -10 30 -10 17 0 30
-4 30 -10 0 -5 9 -10 20 -10 11 0 20 -4 20 -10 0 -5 14 -10 30 -10 17 0 30 -4
30 -10 0 -5 9 -10 20 -10 11 0 20 -4 20 -10 0 -5 14 -10 30 -10 17 0 30 -4 30
-10 0 -5 9 -10 20 -10 11 0 20 -4 20 -10 0 -5 -9 -10 -20 -10 -11 0 -20 -3
-20 -7 0 -12 -51 -33 -77 -33 -13 0 -23 -4 -23 -10 0 -5 -9 -10 -20 -10 -11 0
-20 -4 -20 -10 0 -5 -13 -10 -30 -10 -16 0 -30 -4 -30 -10 0 -5 -13 -10 -30
-10 -16 0 -30 -4 -30 -10 0 -5 -9 -10 -20 -10 -11 0 -20 -4 -20 -10 0 -5 -13
-10 -30 -10 -16 0 -30 -4 -30 -10 0 -5 -9 -10 -20 -10 -11 0 -20 -4 -20 -10 0
-18 -97 -11 -135 10 -20 11 -42 20 -50 20 -8 0 -30 9 -50 20 -20 11 -44 20
-55 20 -10 0 -22 5 -25 10 -3 6 -15 10 -25 10 -11 0 -35 9 -55 20 -20 11 -42
20 -50 20 -8 0 -30 9 -50 20 -20 11 -42 20 -50 20 -8 0 -15 5 -15 10 0 6 9 10
20 10 11 0 20 5 20 10 0 6 14 10 30 10 17 0 30 5 30 10 0 6 9 10 20 10 11 0
20 5 20 10 0 6 14 10 30 10 17 0 30 5 30 10 0 6 9 10 20 10 11 0 20 5 20 10 0
6 14 10 30 10 17 0 30 5 30 10 0 6 14 10 30 10 17 0 30 5 30 10 0 6 9 10 20
10 11 0 20 5 20 10 0 6 14 10 30 10 17 0 30 5 30 10 0 6 18 10 40 10 22 0 40
-4 40 -10z m1540 -200 c0 -5 14 -10 30 -10 17 0 30 -4 30 -10 0 -5 9 -10 20
-10 11 0 20 -4 20 -10 0 -5 14 -10 30 -10 17 0 30 -4 30 -10 0 -5 9 -10 20
-10 11 0 20 -4 20 -10 0 -5 14 -10 30 -10 17 0 30 -4 30 -10 0 -5 9 -10 20
-10 11 0 20 -4 20 -10 0 -5 14 -10 30 -10 17 0 30 -4 30 -10 0 -5 14 -10 30
-10 17 0 30 -4 30 -10 0 -5 9 -10 20 -10 11 0 20 -4 20 -10 0 -5 -9 -10 -20
-10 -11 0 -20 -4 -20 -10 0 -5 -13 -10 -30 -10 -16 0 -30 -4 -30 -10 0 -5 -9
-10 -20 -10 -11 0 -20 -4 -20 -10 0 -5 -13 -10 -30 -10 -16 0 -30 -4 -30 -10
0 -5 -9 -10 -20 -10 -11 0 -20 -4 -20 -10 0 -5 -13 -10 -30 -10 -16 0 -30 -4
-30 -10 0 -5 -9 -10 -20 -10 -11 0 -20 -4 -20 -10 0 -5 -13 -10 -30 -10 -16 0
-30 -4 -30 -10 0 -5 -9 -10 -20 -10 -11 0 -20 -4 -20 -10 0 -6 -27 -10 -60
-10 -33 0 -60 4 -60 10 0 6 -13 10 -30 10 -16 0 -30 5 -30 10 0 6 -9 10 -20
10 -11 0 -20 5 -20 10 0 6 -13 10 -30 10 -16 0 -30 5 -30 10 0 6 -9 10 -20 10
-11 0 -20 5 -20 10 0 6 -13 10 -30 10 -16 0 -30 5 -30 10 0 6 -9 10 -20 10
-11 0 -20 5 -20 10 0 6 -13 10 -30 10 -16 0 -30 5 -30 10 0 6 -9 10 -20 10
-11 0 -20 5 -20 10 0 6 -13 10 -30 10 -16 0 -30 5 -30 10 0 6 13 10 29 10 17
0 33 5 36 10 3 6 14 10 24 10 21 0 71 22 71 33 0 4 11 7 25 7 13 0 40 9 60 20
20 11 41 20 48 20 18 0 67 24 67 33 0 4 12 7 28 8 15 0 41 9 57 19 32 20 115
27 115 10z m-1540 -600 c0 -5 14 -10 30 -10 17 0 30 -4 30 -10 0 -5 14 -10 30
-10 17 0 30 -4 30 -10 0 -5 9 -10 20 -10 11 0 20 -4 20 -10 0 -5 14 -10 30
-10 17 0 30 -4 30 -10 0 -5 9 -10 20 -10 11 0 20 -4 20 -10 0 -5 14 -10 30
-10 17 0 30 -4 30 -10 0 -5 9 -10 20 -10 11 0 20 -4 20 -10 0 -5 14 -10 30
-10 17 0 30 -4 30 -10 0 -5 9 -10 20 -10 11 0 20 -4 20 -10 0 -5 -9 -10 -20
-10 -11 0 -20 -4 -20 -10 0 -5 -9 -10 -20 -10 -11 0 -20 -4 -20 -10 0 -5 -13
-10 -30 -10 -16 0 -30 -4 -30 -10 0 -5 -13 -10 -30 -10 -16 0 -30 -4 -30 -10
0 -5 -9 -10 -20 -10 -11 0 -20 -4 -20 -10 0 -5 -11 -10 -25 -10 -13 0 -40 -9
-60 -20 -20 -11 -44 -20 -55 -20 -11 0 -20 -4 -20 -10 0 -5 -9 -10 -19 -10
-11 0 -23 -4 -26 -10 -3 -5 -31 -10 -61 -10 -30 0 -54 5 -54 10 0 6 -9 10 -20
10 -11 0 -20 5 -20 10 0 6 -13 10 -30 10 -16 0 -30 5 -30 10 0 6 -9 10 -20 10
-11 0 -20 5 -20 10 0 6 -13 10 -30 10 -16 0 -30 5 -30 10 0 6 -13 10 -30 10
-16 0 -30 5 -30 10 0 6 -9 10 -20 10 -11 0 -20 5 -20 10 0 6 -13 10 -30 10
-16 0 -30 5 -30 10 0 6 -9 10 -20 10 -11 0 -20 5 -20 10 0 6 -9 10 -20 10 -11
0 -20 5 -20 10 0 6 9 10 20 10 11 0 20 5 20 10 0 6 14 10 30 10 17 0 30 5 30
10 0 6 9 10 20 10 11 0 20 5 20 10 0 6 14 10 30 10 17 0 30 5 30 10 0 6 9 10
20 10 11 0 20 5 20 10 0 6 14 10 30 10 17 0 30 5 30 10 0 6 9 10 20 10 11 0
20 5 20 10 0 6 14 10 30 10 17 0 30 5 30 10 0 6 14 10 30 10 17 0 30 5 30 10
0 6 18 10 40 10 22 0 40 -4 40 -10z m4100 0 c0 -5 14 -10 30 -10 17 0 30 -4
30 -10 0 -5 9 -10 20 -10 11 0 20 -4 20 -10 0 -5 14 -10 30 -10 17 0 30 -4 30
-10 0 -5 9 -10 20 -10 11 0 20 -4 20 -10 0 -5 14 -10 30 -10 17 0 30 -4 30
-10 0 -5 9 -10 20 -10 11 0 20 -4 20 -10 0 -5 14 -10 30 -10 17 0 30 -4 30
-10 0 -5 14 -10 30 -10 17 0 30 -4 30 -10 0 -5 12 -10 27 -10 l27 0 -23 -21
c-19 -17 -25 -19 -31 -8 -7 11 -13 9 -28 -9 -11 -12 -26 -22 -35 -22 -8 0 -18
-6 -20 -12 -4 -10 -8 -9 -16 2 -8 12 -13 11 -29 -8 -13 -14 -31 -22 -52 -22
-21 0 -39 -8 -52 -22 -16 -19 -21 -20 -29 -8 -8 11 -12 12 -16 3 -2 -7 -12
-13 -20 -13 -9 0 -24 -10 -35 -22 -16 -19 -21 -20 -28 -8 -7 12 -12 11 -28 -8
-11 -12 -26 -22 -35 -22 -8 0 -18 -6 -21 -12 -5 -10 -7 -10 -12 0 -3 6 -19 12
-35 12 -16 0 -29 5 -29 10 0 6 -13 10 -30 10 -16 0 -30 3 -30 8 0 8 -49 32
-67 32 -7 0 -28 9 -48 20 -20 11 -42 20 -50 20 -8 0 -30 9 -50 20 -20 11 -42
20 -50 20 -8 0 -30 9 -50 20 -20 11 -47 20 -60 20 -14 0 -25 5 -25 10 0 6 14
10 30 10 17 0 30 5 30 10 0 6 9 10 20 10 11 0 20 5 20 10 0 6 14 10 30 10 17
0 30 5 30 10 0 6 14 10 30 10 17 0 30 5 30 10 0 6 9 10 20 10 11 0 20 5 20 10
0 6 14 10 30 10 17 0 30 5 30 10 0 6 9 10 20 10 11 0 20 5 20 10 0 6 14 10 30
10 17 0 30 5 30 10 0 6 9 10 20 10 11 0 20 5 20 10 0 6 23 10 50 10 28 0 50
-4 50 -10z m-1020 -400 c0 -5 14 -10 30 -10 17 0 30 -4 30 -10 0 -5 9 -10 20
-10 11 0 20 -4 20 -10 0 -5 14 -10 30 -10 17 0 30 -4 30 -10 0 -5 9 -10 20
-10 11 0 20 -4 20 -10 0 -5 14 -10 30 -10 17 0 30 -4 30 -10 0 -5 9 -10 20
-10 11 0 20 -4 20 -10 0 -5 14 -10 30 -10 17 0 30 -4 30 -10 0 -5 9 -10 20
-10 11 0 20 -4 20 -10 0 -5 9 -10 20 -10 11 0 20 -4 20 -10 0 -5 -9 -10 -19
-10 -11 0 -21 -5 -23 -11 -2 -6 -16 -11 -31 -11 -15 0 -27 -4 -27 -9 0 -5 -9
-9 -19 -9 -11 0 -21 -5 -23 -11 -2 -6 -16 -11 -31 -11 -15 0 -27 -4 -27 -7 0
-10 -71 -37 -87 -33 -7 2 -13 -1 -13 -6 0 -12 -46 -32 -75 -32 -14 0 -25 -4
-25 -8 0 -12 -70 -32 -109 -32 -17 0 -31 5 -31 10 0 6 -13 10 -30 10 -16 0
-30 5 -30 10 0 6 -9 10 -20 10 -11 0 -20 5 -20 10 0 6 -13 10 -30 10 -16 0
-30 5 -30 10 0 6 -9 10 -20 10 -11 0 -20 5 -20 10 0 6 -13 10 -30 10 -16 0
-30 5 -30 10 0 6 -9 10 -20 10 -11 0 -20 5 -20 10 0 6 -13 10 -30 10 -16 0
-30 5 -30 10 0 6 -13 10 -30 10 -16 0 -30 5 -30 10 0 6 -9 10 -20 10 -11 0
-20 5 -20 10 0 6 14 10 30 10 17 0 30 5 30 10 0 6 9 10 20 10 11 0 20 5 20 10
0 6 14 10 30 10 17 0 30 5 30 10 0 6 9 10 20 10 11 0 20 5 20 10 0 6 14 10 30
10 17 0 30 5 30 10 0 6 9 10 20 10 11 0 20 5 20 10 0 6 14 10 30 10 17 0 30 5
30 10 0 6 14 10 30 10 17 0 30 5 30 10 0 6 9 10 20 10 11 0 20 5 20 10 0 6 23
10 50 10 28 0 50 -4 50 -10z m-2560 -200 c0 -5 14 -10 30 -10 17 0 30 -4 30
-10 0 -5 9 -10 20 -10 11 0 20 -4 20 -10 0 -5 14 -10 30 -10 17 0 30 -4 30
-10 0 -5 9 -10 20 -10 11 0 20 -4 20 -10 0 -5 14 -10 30 -10 17 0 30 -4 30
-10 0 -5 9 -10 20 -10 11 0 20 -4 20 -10 0 -5 14 -10 30 -10 17 0 30 -4 30
-10 0 -5 14 -10 30 -10 17 0 30 -4 30 -10 0 -5 9 -10 20 -10 11 0 20 -4 20
-10 0 -5 14 -10 30 -10 17 0 30 -4 30 -10 0 -5 7 -10 15 -10 8 0 23 -4 33 -9
9 -5 44 -17 77 -26 33 -9 89 -32 125 -51 35 -19 75 -34 87 -34 13 0 23 -4 23
-10 0 -5 9 -10 20 -10 11 0 20 -4 20 -10 0 -5 14 -10 30 -10 17 0 30 -4 30
-10 0 -5 -13 -10 -30 -10 -37 0 -38 -9 -4 -41 37 -34 107 -144 133 -209 20
-50 51 -189 51 -232 0 -17 -21 -18 -304 -18 -298 0 -350 -5 -368 -33 -4 -7 -8
-45 -8 -86 0 -119 -24 -111 357 -111 l324 0 -3 -112 -3 -113 -323 -5 c-377 -6
-352 2 -352 -114 0 -39 4 -76 8 -82 20 -31 55 -34 361 -34 l311 0 0 -110 0
-110 -310 0 c-208 0 -317 -4 -334 -11 -24 -11 -25 -15 -24 -103 0 -72 4 -93
17 -103 12 -9 96 -12 334 -13 l319 0 -7 -62 c-20 -173 -76 -289 -200 -414 -71
-72 -106 -99 -165 -127 -113 -54 -188 -72 -310 -72 -122 0 -200 18 -310 72
-104 50 -240 186 -292 293 -75 153 -72 120 -76 855 -3 748 -4 739 73 893 24
48 67 113 95 145 34 37 46 57 36 57 -9 0 -16 5 -16 10 0 6 -13 10 -30 10 -16
0 -30 5 -30 10 0 6 -13 10 -30 10 -16 0 -30 5 -30 10 0 6 -9 10 -20 10 -11 0
-20 5 -20 10 0 6 -13 10 -30 10 -16 0 -30 5 -30 10 0 6 -9 10 -20 10 -11 0
-20 5 -20 10 0 6 -13 10 -30 10 -16 0 -30 5 -30 10 0 6 -9 10 -20 10 -11 0
-20 5 -20 10 0 6 -13 10 -30 10 -16 0 -30 5 -30 10 0 6 -13 10 -30 10 -16 0
-30 5 -30 10 0 6 -9 10 -20 10 -11 0 -20 5 -20 10 0 6 14 10 30 10 17 0 30 5
30 10 0 6 9 10 20 10 11 0 20 5 20 10 0 6 14 10 30 10 17 0 30 5 30 10 0 6 9
10 20 10 11 0 20 5 20 10 0 6 14 10 30 10 17 0 30 5 30 10 0 6 9 10 20 10 11
0 20 5 20 10 0 6 14 10 30 10 17 0 30 5 30 10 0 6 14 10 30 10 17 0 30 5 30
10 0 6 9 10 20 10 11 0 20 5 20 10 0 6 23 10 50 10 28 0 50 -4 50 -10z m-3065
-280 c20 -11 42 -20 50 -20 8 0 30 -9 50 -20 20 -11 42 -20 50 -20 8 0 30 -9
50 -20 20 -11 44 -20 55 -20 10 0 22 -4 25 -10 3 -5 15 -10 25 -10 11 0 35 -9
53 -19 19 -11 45 -21 58 -23 33 -4 46 -42 41 -110 -3 -41 -8 -58 -18 -58 -8 0
-14 5 -14 10 0 6 -13 10 -30 10 -16 0 -30 3 -30 8 0 11 -51 32 -77 32 -13 0
-23 5 -23 10 0 6 -9 10 -20 10 -11 0 -20 5 -20 10 0 6 -13 10 -30 10 -16 0
-30 5 -30 10 0 6 -9 10 -20 10 -11 0 -20 5 -20 10 0 6 -13 10 -30 10 -16 0
-30 5 -30 10 0 6 -13 10 -30 10 -16 0 -30 5 -30 10 0 6 -7 10 -16 10 -30 0
-43 32 -44 103 0 37 4 67 10 67 5 0 25 -9 45 -20z m2550 -320 c3 -5 -1 -10
-10 -10 -9 0 -13 5 -10 10 3 6 8 10 10 10 2 0 7 -4 10 -10z m1155 -320 c0 -5
-2 -10 -4 -10 -3 0 -8 5 -11 10 -3 6 -1 10 4 10 6 0 11 -4 11 -10z m-60 -20
c0 -5 -4 -10 -10 -10 -5 0 -10 5 -10 10 0 6 5 10 10 10 6 0 10 -4 10 -10z
m-100 -40 c0 -5 -4 -10 -10 -10 -5 0 -10 5 -10 10 0 6 5 10 10 10 6 0 10 -4
10 -10z m-1525 -90 c3 -5 15 -10 25 -10 11 0 35 -9 55 -20 20 -11 42 -20 50
-20 8 0 30 -9 50 -20 20 -11 44 -20 55 -20 10 0 22 -4 25 -10 3 -5 15 -10 25
-10 11 0 35 -9 55 -20 20 -11 42 -20 49 -20 18 0 72 -28 83 -43 5 -6 8 -18 7
-24 -1 -7 -2 -38 -3 -68 -1 -42 -5 -55 -16 -55 -8 0 -15 5 -15 10 0 6 -9 10
-20 10 -11 0 -20 5 -20 10 0 6 -13 10 -30 10 -16 0 -30 5 -30 10 0 6 -9 10
-20 10 -11 0 -20 5 -20 10 0 6 -13 10 -30 10 -16 0 -30 5 -30 10 0 6 -9 10
-20 10 -11 0 -20 5 -20 10 0 6 -13 10 -30 10 -16 0 -30 5 -30 10 0 6 -13 10
-30 10 -16 0 -30 5 -30 10 0 6 -9 10 -20 10 -11 0 -20 5 -20 10 0 6 -13 10
-29 10 -36 0 -42 16 -45 106 -1 44 3 64 11 64 6 0 15 -4 18 -10z m528 -521
c13 -6 32 -25 42 -42 16 -27 19 -59 21 -266 2 -213 5 -245 27 -332 44 -171
131 -326 251 -445 75 -75 180 -149 208 -147 10 1 20 -2 23 -8 4 -5 15 -9 25
-9 11 0 35 -9 55 -20 20 -11 45 -20 56 -20 11 0 22 -6 25 -14 3 -8 12 -12 20
-9 8 3 14 1 14 -4 0 -18 164 -36 257 -30 412 30 750 325 835 731 6 28 11 161
12 296 3 266 7 290 57 316 18 9 59 14 113 14 164 0 166 -4 166 -318 0 -353
-22 -468 -130 -687 -98 -199 -239 -360 -423 -484 -117 -79 -306 -156 -446
-182 l-71 -13 0 -117 0 -117 218 -7 c119 -4 225 -11 235 -17 10 -5 27 -24 37
-41 24 -39 27 -160 6 -211 -29 -69 6 -66 -668 -66 l-608 0 -32 29 c-32 28 -33
32 -36 119 -3 68 0 97 12 121 31 59 44 62 281 68 l215 6 0 117 0 118 -47 7
c-201 30 -450 159 -627 324 -69 65 -165 191 -225 296 -130 227 -181 456 -181
807 0 226 15 248 167 248 51 0 103 -5 116 -11z m-2528 -29 c20 -11 42 -20 50
-20 8 0 30 -9 50 -20 20 -11 42 -20 50 -20 8 0 30 -9 50 -20 20 -11 44 -20 55
-20 10 0 22 -4 25 -10 3 -5 15 -10 25 -10 11 0 35 -9 55 -20 20 -11 44 -20 55
-20 18 0 20 -7 19 -87 0 -49 -3 -82 -6 -75 -2 6 -18 12 -34 12 -16 0 -29 5
-29 10 0 6 -9 10 -20 10 -11 0 -20 5 -20 10 0 6 -11 10 -24 10 -14 0 -28 5
-31 10 -3 6 -15 10 -26 10 -10 0 -19 5 -19 10 0 6 -13 10 -30 10 -16 0 -30 5
-30 10 0 6 -9 10 -20 10 -11 0 -20 5 -20 10 0 6 -13 10 -30 10 -16 0 -30 5
-30 10 0 6 -13 10 -30 10 -16 0 -30 5 -30 10 0 6 -9 10 -20 10 -11 0 -20 5
-20 10 0 6 -7 10 -15 10 -8 0 -15 6 -16 13 -5 125 -4 137 13 137 10 0 33 -9
53 -20z m991 -1720 c13 0 26 -4 29 -10 3 -5 15 -10 25 -10 11 0 35 -9 55 -20
20 -11 42 -20 50 -20 8 0 30 -9 50 -20 20 -11 42 -20 50 -20 8 0 30 -9 50 -20
20 -11 41 -20 48 -20 6 0 33 -10 59 -22 l48 -23 0 -72 c0 -58 -3 -73 -15 -73
-8 0 -15 5 -15 10 0 6 -13 10 -30 10 -16 0 -30 5 -30 10 0 6 -13 10 -30 10
-16 0 -30 3 -30 8 0 11 -51 32 -77 32 -13 0 -23 5 -23 10 0 6 -9 10 -20 10
-11 0 -20 5 -20 10 0 6 -13 10 -30 10 -16 0 -30 5 -30 10 0 6 -9 10 -20 10
-11 0 -20 5 -20 10 0 6 -13 10 -30 10 -16 0 -30 5 -30 10 0 6 -9 10 -20 10
-23 0 -28 17 -33 107 -2 42 0 60 7 53 6 -6 20 -10 32 -10z"/>
<path d="M5098 6933 c12 -2 32 -2 45 0 12 2 2 4 -23 4 -25 0 -35 -2 -22 -4z"/>
<path d="M8685 2170 c3 -5 8 -10 11 -10 2 0 4 5 4 10 0 6 -5 10 -11 10 -5 0
-7 -4 -4 -10z"/>
<path d="M9178 2043 c7 -3 16 -2 19 1 4 3 -2 6 -13 5 -11 0 -14 -3 -6 -6z"/>
<path d="M8125 1950 c3 -5 8 -10 11 -10 2 0 4 5 4 10 0 6 -5 10 -11 10 -5 0
-7 -4 -4 -10z"/>
<path d="M368 1823 c6 -2 18 -2 25 0 6 3 1 5 -13 5 -14 0 -19 -2 -12 -5z"/>
<path d="M248 1813 c6 -2 18 -2 25 0 6 3 1 5 -13 5 -14 0 -19 -2 -12 -5z"/>
<path d="M480 1810 c0 -5 -19 -6 -42 -3 -36 3 -40 2 -25 -7 11 -7 32 -9 50 -6
18 4 46 6 64 6 17 0 34 3 36 7 3 5 -15 9 -39 9 -24 1 -44 -2 -44 -6z"/>
<path d="M333 1803 c9 -2 23 -2 30 0 6 3 -1 5 -18 5 -16 0 -22 -2 -12 -5z"/>
<path d="M623 1803 c15 -2 37 -2 50 0 12 2 0 4 -28 4 -27 0 -38 -2 -22 -4z"/>
<path d="M770 1790 c-34 -7 -34 -7 -5 -8 17 0 39 3 50 8 24 10 4 10 -45 0z"/>
<path d="M333 1783 c9 -2 23 -2 30 0 6 3 -1 5 -18 5 -16 0 -22 -2 -12 -5z"/>
<path d="M870 1780 c0 -5 5 -10 11 -10 5 0 7 5 4 10 -3 6 -8 10 -11 10 -2 0
-4 -4 -4 -10z"/>
<path d="M905 1780 c-3 -5 1 -10 9 -10 9 0 16 5 16 10 0 6 -4 10 -9 10 -6 0
-13 -4 -16 -10z"/>
<path d="M1120 1778 c0 -5 35 -7 78 -7 78 2 69 6 -26 11 -28 2 -52 0 -52 -4z"/>
<path d="M538 1773 c7 -3 16 -2 19 1 4 3 -2 6 -13 5 -11 0 -14 -3 -6 -6z"/>
<path d="M608 1773 c6 -2 18 -2 25 0 6 3 1 5 -13 5 -14 0 -19 -2 -12 -5z"/>
<path d="M661 1776 c2 -2 27 -6 54 -9 34 -4 42 -3 25 3 -25 8 -87 13 -79 6z"/>
<path d="M963 1773 c9 -2 23 -2 30 0 6 3 -1 5 -18 5 -16 0 -22 -2 -12 -5z"/>
<path d="M1088 1773 c7 -3 16 -2 19 1 4 3 -2 6 -13 5 -11 0 -14 -3 -6 -6z"/>
<path d="M1288 1773 c7 -3 16 -2 19 1 4 3 -2 6 -13 5 -11 0 -14 -3 -6 -6z"/>
<path d="M1388 1763 c6 -2 18 -2 25 0 6 3 1 5 -13 5 -14 0 -19 -2 -12 -5z"/>
<path d="M1733 1743 c-6 -4 32 -9 85 -9 61 -1 98 -6 100 -13 2 -6 8 -11 13
-11 6 0 8 4 5 9 -4 5 0 12 6 14 7 3 -1 6 -18 6 -17 1 -64 4 -105 7 -41 3 -79
2 -86 -3z"/>
<path d="M2138 1723 c7 -3 16 -2 19 1 4 3 -2 6 -13 5 -11 0 -14 -3 -6 -6z"/>
<path d="M1740 1710 c25 -8 107 -13 99 -6 -2 2 -31 6 -64 9 -37 3 -51 2 -35
-3z"/>
<path d="M2060 1710 c-9 -6 -10 -10 -3 -10 6 0 15 5 18 10 8 12 4 12 -15 0z"/>
<path d="M2160 1710 l-45 -7 58 -1 c32 -1 57 2 57 8 0 11 -1 11 -70 0z"/>
<path d="M2310 1709 c41 -5 98 -10 125 -13 l50 -4 -45 7 -45 7 35 5 c19 3 -17
6 -80 6 -113 0 -114 0 -40 -8z"/>
<path d="M2538 1703 c7 -3 16 -2 19 1 4 3 -2 6 -13 5 -11 0 -14 -3 -6 -6z"/>
<path d="M2268 1693 c17 -2 47 -2 65 0 17 2 3 4 -33 4 -36 0 -50 -2 -32 -4z"/>
<path d="M2598 1693 c12 -2 32 -2 45 0 12 2 2 4 -23 4 -25 0 -35 -2 -22 -4z"/>
<path d="M2688 1693 c7 -3 16 -2 19 1 4 3 -2 6 -13 5 -11 0 -14 -3 -6 -6z"/>
<path d="M2118 1683 c7 -3 16 -2 19 1 4 3 -2 6 -13 5 -11 0 -14 -3 -6 -6z"/>
<path d="M2815 1580 c-3 -5 1 -10 9 -10 9 0 16 5 16 10 0 6 -4 10 -9 10 -6 0
-13 -4 -16 -10z"/>
<path d="M3124 1560 c0 -13 4 -16 10 -10 7 7 7 13 0 20 -6 6 -10 3 -10 -10z"/>
<path d="M3146 1532 c-2 -4 4 -8 14 -8 10 0 16 4 14 8 -3 4 -9 8 -14 8 -5 0
-11 -4 -14 -8z"/>
<path d="M2640 1500 c0 -5 5 -10 10 -10 6 0 10 5 10 10 0 6 -4 10 -10 10 -5 0
-10 -4 -10 -10z"/>
<path d="M3216 1478 c10 -14 21 -24 23 -22 3 3 -6 15 -18 27 l-24 22 19 -27z"/>
<path d="M2656 1464 c-4 -10 -1 -14 6 -12 15 5 23 28 10 28 -5 0 -13 -7 -16
-16z"/>
<path d="M2925 1439 c-4 -6 -5 -12 -2 -15 2 -3 7 2 10 11 7 17 1 20 -8 4z"/>
<path d="M2952 1415 c0 -16 2 -22 5 -12 2 9 2 23 0 30 -3 6 -5 -1 -5 -18z"/>
<path d="M2480 1330 c0 -6 7 -10 15 -10 8 0 15 2 15 4 0 2 -7 6 -15 10 -8 3
-15 1 -15 -4z"/>
<path d="M2850 1290 c0 -5 5 -10 10 -10 6 0 10 5 10 10 0 6 -4 10 -10 10 -5 0
-10 -4 -10 -10z"/>
<path d="M3393 1284 c0 -16 13 -19 21 -5 3 5 0 11 -7 14 -8 3 -14 -1 -14 -9z"/>
<path d="M2370 1262 c0 -14 6 -22 16 -22 14 0 15 3 3 18 -7 9 -15 19 -16 21
-2 2 -3 -5 -3 -17z"/>
<path d="M3444 1235 c8 -9 13 -22 10 -30 -4 -8 -1 -15 6 -15 6 0 8 5 5 10 -3
6 -1 10 6 10 7 0 5 8 -6 20 -10 11 -22 20 -27 20 -5 0 -3 -7 6 -15z"/>
<path d="M3455 1160 c3 -5 8 -10 11 -10 2 0 4 5 4 10 0 6 -5 10 -11 10 -5 0
-7 -4 -4 -10z"/>
<path d="M2770 1130 c0 -5 5 -10 11 -10 5 0 7 5 4 10 -3 6 -8 10 -11 10 -2 0
-4 -4 -4 -10z"/>
<path d="M3530 1081 c0 -6 5 -13 10 -16 6 -3 10 1 10 9 0 9 -4 16 -10 16 -5 0
-10 -4 -10 -9z"/>
<path d="M2085 1030 c3 -5 11 -10 16 -10 6 0 7 5 4 10 -3 6 -11 10 -16 10 -6
0 -7 -4 -4 -10z"/>
<path d="M3645 1020 c3 -5 11 -10 16 -10 6 0 7 5 4 10 -3 6 -11 10 -16 10 -6
0 -7 -4 -4 -10z"/>
<path d="M6561 973 c-7 -32 -59 -231 -116 -443 -122 -459 -138 -521 -132 -526
2 -2 417 -3 922 -2 l918 3 -54 34 c-173 110 -335 216 -717 469 -407 270 -494
328 -552 362 -14 9 -72 47 -129 84 -58 37 -110 70 -116 72 -7 3 -17 -17 -24
-53z"/>
<path d="M3610 1014 c0 -13 18 -39 24 -34 2 3 -2 14 -10 24 -8 11 -14 16 -14
10z"/>
<path d="M2677 1004 c-4 -4 -7 -14 -7 -23 0 -11 3 -12 11 -4 6 6 10 16 7 23
-2 6 -7 8 -11 4z"/>
<path d="M3670 990 c-8 -5 -11 -12 -7 -16 4 -4 13 -2 19 4 15 15 7 24 -12 12z"/>
<path d="M3695 960 c-3 -6 1 -7 9 -4 18 7 21 14 7 14 -6 0 -13 -4 -16 -10z"/>
<path d="M3726 935 c4 -8 11 -15 16 -15 6 0 5 6 -2 15 -7 8 -14 15 -16 15 -2
0 -1 -7 2 -15z"/>
<path d="M3740 908 c-22 -10 -23 -12 -6 -16 10 -2 22 2 27 10 5 8 9 9 9 2 0
-7 8 -15 17 -18 15 -6 15 -4 -2 14 -10 11 -19 20 -19 19 -1 0 -12 -5 -26 -11z"/>
<path d="M3780 832 c0 -12 19 -26 26 -19 2 2 -2 10 -11 17 -9 8 -15 8 -15 2z"/>
<path d="M3830 825 c-7 -9 -8 -15 -2 -15 5 0 12 7 16 15 3 8 4 15 2 15 -2 0
-9 -7 -16 -15z"/>
<path d="M1780 780 c0 -5 5 -10 10 -10 6 0 10 5 10 10 0 6 -4 10 -10 10 -5 0
-10 -4 -10 -10z"/>
<path d="M2530 745 c-7 -9 -11 -17 -9 -20 3 -2 10 5 17 15 14 24 10 26 -8 5z"/>
<path d="M3906 741 c-3 -5 1 -11 9 -14 9 -4 12 -1 8 9 -6 16 -10 17 -17 5z"/>
<path d="M1620 669 c0 -5 5 -7 10 -4 6 3 10 8 10 11 0 2 -4 4 -10 4 -5 0 -10
-5 -10 -11z"/>
<path d="M4035 620 c3 -5 11 -10 16 -10 6 0 7 5 4 10 -3 6 -11 10 -16 10 -6 0
-7 -4 -4 -10z"/>
<path d="M4000 600 c0 -5 5 -10 11 -10 5 0 7 5 4 10 -3 6 -8 10 -11 10 -2 0
-4 -4 -4 -10z"/>
<path d="M2441 584 c0 -11 3 -14 6 -6 3 7 2 16 -1 19 -3 4 -6 -2 -5 -13z"/>
<path d="M4110 547 c0 -15 27 -43 34 -36 3 2 -4 15 -15 28 -13 16 -19 18 -19
8z"/>
<path d="M4175 490 c10 -11 20 -20 23 -20 3 0 -3 9 -13 20 -10 11 -20 20 -23
20 -3 0 3 -9 13 -20z"/>
<path d="M4108 483 c7 -3 16 -2 19 1 4 3 -2 6 -13 5 -11 0 -14 -3 -6 -6z"/>
<path d="M4160 464 c0 -6 7 -19 15 -30 8 -10 14 -14 14 -9 0 6 -6 19 -14 29
-8 11 -15 15 -15 10z"/>
<path d="M4200 451 c0 -4 11 -16 24 -27 14 -10 22 -22 19 -27 -4 -6 -1 -7 6
-2 9 5 5 15 -15 36 -30 31 -34 34 -34 20z"/>
<path d="M1200 380 c0 -5 5 -10 11 -10 5 0 7 5 4 10 -3 6 -8 10 -11 10 -2 0
-4 -4 -4 -10z"/>
<path d="M4257 383 c-10 -9 -9 -23 2 -23 5 0 11 7 15 15 5 15 -5 20 -17 8z"/>
<path d="M4310 342 c0 -4 10 -13 23 -21 22 -14 22 -14 3 8 -20 22 -26 25 -26
13z"/>
<path d="M2279 302 c-3 -20 -2 -29 4 -23 5 5 7 19 5 32 -3 20 -5 19 -9 -9z"/>
<path d="M1135 300 c-3 -5 1 -10 9 -10 9 0 16 5 16 10 0 6 -4 10 -9 10 -6 0
-13 -4 -16 -10z"/>
<path d="M2311 294 c0 -11 3 -14 6 -6 3 7 2 16 -1 19 -3 4 -6 -2 -5 -13z"/>
<path d="M4360 285 c10 -12 10 -18 -1 -32 -13 -15 -12 -15 8 -4 20 10 21 14
10 31 -6 11 -16 20 -21 20 -4 0 -3 -7 4 -15z"/>
<path d="M4410 185 c7 -8 17 -15 22 -15 6 0 5 7 -2 15 -7 8 -17 15 -22 15 -6
0 -5 -7 2 -15z"/>
<path d="M918 133 c7 -3 16 -2 19 1 4 3 -2 6 -13 5 -11 0 -14 -3 -6 -6z"/>
<path d="M4510 136 c0 -2 8 -10 18 -17 15 -13 16 -12 3 4 -13 16 -21 21 -21
13z"/>
<path d="M4490 123 c0 -6 8 -17 18 -24 16 -13 16 -13 2 6 -8 11 -16 22 -17 24
-2 2 -3 0 -3 -6z"/>
<path d="M881 104 c0 -11 3 -14 6 -6 3 7 2 16 -1 19 -3 4 -6 -2 -5 -13z"/>
<path d="M2135 50 c-3 -5 -1 -10 4 -10 6 0 11 5 11 10 0 6 -2 10 -4 10 -3 0
-8 -4 -11 -10z"/>
<path d="M4600 43 c0 -6 -10 -14 -22 -18 -16 -4 -19 -8 -10 -12 16 -6 49 23
39 33 -4 4 -7 3 -7 -3z"/>
<path d="M2120 15 c7 -8 17 -15 22 -15 5 0 3 7 -6 15 -8 8 -18 15 -22 15 -3 0
-1 -7 6 -15z"/>
</g>
</svg>
